<!-- Generated by IcoMoon.io -->
<svg version="1.1" xmlns="http://www.w3.org/2000/svg" width="1024" height="1024" viewBox="0 0 1024 1024">
<title></title>
<g id="icomoon-ignore">
</g>
<path fill="#000" d="M1023.999 483.582v56.836c-262.132 8.67-473.28 219.152-482.901 481.174 0 0.963 0 1.446 0 2.408h-58.197c0-0.963 0-1.446 0-2.408-10.102-261.539-219.806-471.542-480.496-481.174-0.962 0-1.443 0-2.404 0v-56.836c0.962 0 1.443 0 2.404 0 261.171-9.633 470.876-220.117 480.496-481.174 0-0.964 0-1.445 0-2.408h58.197c0 0.964 0 1.445 0 2.408 9.621 262.021 220.769 472.504 482.901 481.174z"></path>
</svg>
