<svg xmlns="http://www.w3.org/2000/svg" fill="none" viewBox="0 0 547 583"><path stroke="#1B1B1B" stroke-miterlimit="10" d="M.612 581.518c75.449 0 136.612-61.891 136.612-138.238 0-76.346-61.163-138.237-136.612-138.237M137.212 304.561c46.531 0 84.252-38.17 84.252-85.255 0-47.084-37.721-85.254-84.252-85.254s-84.252 38.17-84.252 85.254c0 47.085 37.72 85.255 84.252 85.255z"/><path fill="#1B1B1B" stroke="#1B1B1B" stroke-miterlimit="10" d="M137.212 166.805c-28.655 0-51.884 23.506-51.884 52.501h103.768c0-28.995-23.23-52.501-51.884-52.501z"/><path stroke="#1B1B1B" stroke-miterlimit="10" d="M137.212 271.501c-28.655 0-51.884-23.505-51.884-52.501h103.768c0 28.996-23.23 52.501-51.884 52.501zM273.348 529.017c46.531 0 84.252-38.17 84.252-85.255 0-47.085-37.721-85.255-84.252-85.255s-84.252 38.17-84.252 85.255c0 47.085 37.721 85.255 84.252 85.255z"/><path stroke="#1B1B1B" stroke-miterlimit="10" d="M273.348 496.264c28.655 0 51.884-23.506 51.884-52.502 0-28.996-23.229-52.501-51.884-52.501s-51.884 23.505-51.884 52.501 23.229 52.502 51.884 52.502z"/><path fill="#1B1B1B" d="M341.892 323.592c-40.651 23.987-68.068 68.589-68.068 119.646 0-51.249-27.608-96.044-68.544-119.935C225.367 311.647 248.596 305 273.348 305h.476c24.847.096 48.076 6.84 68.068 18.592zM341.892 562.883c-20.183 11.849-43.602 18.593-68.544 18.593-24.752 0-47.981-6.647-68.068-18.304 40.936-23.89 68.544-68.589 68.544-119.934 0 51.056 27.417 95.659 68.068 119.645zM165.493 38.74c-45.33 1.603-104.197 32.286-98.662 56.216 7.088 30.646 93.583-16.603 98.662-56.215z"/><path stroke="#1B1B1B" d="M231.936 62.25c-6.495 5.424-61.786 32.732-52.114 49.427 9.672 16.695 60.373-28.897 25.793-61.627-9.17-8.68-23.765-11.887-40.122-11.31M41.536 9.72C86.145-.845 159.34-9.31 165.45 31.41c.36 2.4.361 4.85.043 7.33m0 0c-45.33 1.603-104.197 32.286-98.662 56.216 7.088 30.646 93.583-16.603 98.662-56.215zM137 304.5h409"/><path fill="#1B1B1B" d="M409.388 305.561h-1.822c-86.681-62.668-15.429-124.251-37.822-161.006-20.573-33.611-85.718-8.674-94.182-5.313a139.786 139.786 0 0 1 23.465-53.343c16.072 8.782 148.719-22.335 110.361 81.424C369.744 274.661 430.817 252 471.533 290.49c-18.644 9.65-39.752 15.071-62.145 15.071z"/><path fill="#1B1B1B" d="M299.884 249.941c-17.036-23.094-27.108-51.609-27.108-82.618 0-2.602.107-5.096.214-7.589 4.179-1.735 61.616-16.234 69.51 19.766 7.894 36-59.974 34.987-42.616 70.441zM430 196c9-19 42.5-10 36-62.5s10.462-86.633 10.462-86.633c2.678 1.518 5.25 3.144 7.714 4.77C521.463 76.357 546 118.967 546 167.323c0 34.153-12.215 65.379-32.465 89.448C514 238 511.853 184.904 484.176 208 456.5 231.097 421 215 430 196zM359.672 38.518a135.274 135.274 0 0 1 49.716-9.433c14.572 0 28.608 2.277 41.787 6.614 0 0-19.378 11.924-5.675 46.801s-72.221 5.025-85.828-43.982z"/><rect width="272.22" height="275.48" x="273.5" y="29.5" stroke="#1B1B1B" rx="136.11"/><rect width="272.22" height="275.48" x="273.5" y="305.5" stroke="#1B1B1B" rx="136.11"/><rect width="272.22" height="275.48" x="136.5" y="305.5" stroke="#1B1B1B" rx="136.11"/><rect width="272.22" height="275.48" x="1.5" y="305.5" stroke="#1B1B1B" rx="136.11"/><path stroke="#1B1B1B" d="M137 581h410"/><rect width="273" height="552" x="273" y="29" stroke="#1B1B1B" rx="136.5"/></svg>