<svg xmlns="http://www.w3.org/2000/svg" xmlns:xlink="http://www.w3.org/1999/xlink"><symbol id="sprite-arrow-btn" viewBox="0 0 1024 1024"><title/><path d="M832.025 448c-.026 0-.051 0-.051 64s.026 64 .051 64l-.019.001-.767.008c-.774.012-2.066.035-3.839.088a483.48 483.48 0 00-16.121.775c-14.237.904-34.94 2.735-59.926 6.437-50.3 7.452-116.275 22.237-181.386 51.175-65.05 28.915-127.081 70.969-172.793 131.916-45.121 60.16-77.2 142.464-77.2 257.6h-128c0-140.864 39.921-250.56 102.8-334.4 62.288-83.051 144.257-136.995 223.207-172.084A711.155 711.155 0 01530.729 512a714.291 714.291 0 01-12.748-5.516c-78.949-35.089-160.919-89.033-223.207-172.084-62.879-83.839-102.8-193.535-102.8-334.4h128c0 115.135 32.079 197.439 77.2 257.6 45.712 60.95 107.743 103.005 172.793 131.916 65.111 28.938 131.087 43.723 181.386 51.175 24.987 3.702 45.69 5.533 59.926 6.437a483.48 483.48 0 0016.121.775c1.773.052 3.064.077 3.839.088l.786.009z"/></symbol><symbol id="sprite-arrow-r" viewBox="0 0 1024 1024"><title/><path d="M1024.007 469.336c-.021 0-.03 0-.03 42.665s.021 42.665.03 42.665h-.021l-.589.01c-.589.01-1.57.027-2.907.076a318.52 318.52 0 00-12.196.65c-10.763.757-26.417 2.28-45.305 5.374-37.988 6.213-87.967 18.574-137.409 42.853-49.304 24.213-97.197 59.812-132.832 112.332-35.439 52.199-60.508 123.655-60.508 222.694h-85.33c0-114.287 29.226-202.835 75.238-270.626 33.217-48.94 74.274-85.731 116.949-113.364H.008v-85.33h739.089c-42.676-27.635-83.731-64.428-116.949-113.365-46.012-67.794-75.238-156.335-75.238-270.625h85.33c0 99.039 25.076 170.493 60.508 222.696 35.646 52.505 83.538 88.12 132.832 112.33 49.451 24.288 99.431 36.64 137.409 42.853 18.894 3.092 34.539 4.618 45.305 5.375 5.374.377 9.514.56 12.196.649 1.346.042 2.32.066 2.907.078l.61.009z"/></symbol><symbol id="sprite-chevrone" viewBox="0 0 1024 1024"><title/><path d="M568.863 755.16L1024 391.053l-113.729-142.16-398.273 318.616-398.269-318.616L.001 391.053l455.134 364.108c33.244 26.595 80.483 26.595 113.728 0z"/></symbol><symbol id="sprite-clip" viewBox="0 0 1024 1024"><title/><path d="M734.99.022a289.043 289.043 0 00-204.371 84.622L391.263 224.001c-20.523 20.523-20.523 53.797 0 74.32s53.797 20.523 74.32 0l139.35-139.35a183.932 183.932 0 01260.112 260.127L725.703 558.442c-20.522 20.522-20.522 53.797 0 74.319s53.797 20.522 74.319 0L939.38 493.404a289.029 289.029 0 0084.619-204.37 289.014 289.014 0 00-84.656-204.355A289.037 289.037 0 00734.989.022zm-18.619 307.576c20.522 20.523 20.522 53.797 0 74.32L381.932 716.356c-20.523 20.527-53.797 20.527-74.32 0-20.523-20.522-20.523-53.792 0-74.319l334.44-334.438c20.522-20.523 53.797-20.523 74.319 0zm-418.073 83.645c20.523 20.523 20.523 53.797 0 74.32L158.955 604.907a183.932 183.932 0 00260.119 260.117l139.344-139.342c20.522-20.522 53.797-20.522 74.319 0s20.522 53.797 0 74.319L493.386 939.354a289.045 289.045 0 01-408.731-.032 289.037 289.037 0 01-.035-408.725l139.357-139.356c20.523-20.523 53.797-20.523 74.32 0z"/></symbol><symbol id="sprite-facebook" viewBox="0 0 1024 1024"><title/><path d="M789.333 7.716v162.032H689.216c-79.401 0-94.361 36.375-94.361 88.181v116.84h188.723l-25.314 181.873H594.855V1024h-196.78V556.642H234.667V374.769h163.408V240.293C398.075 84.875 498.191 0 643.187 0c69.044 0 128.884 4.409 146.147 7.716z"/></symbol><symbol id="sprite-insta" viewBox="0 0 1024 1024"><title/><path d="M512.115 249.458c-145.293 0-262.484 117.218-262.484 262.541s117.192 262.54 262.484 262.54c145.287 0 262.479-117.215 262.479-262.54 0-145.323-117.192-262.541-262.479-262.541zm0 433.228c-93.892 0-170.65-76.549-170.65-170.687 0-94.14 76.529-170.686 170.65-170.686 94.115 0 170.645 76.546 170.645 170.686 0 94.138-76.758 170.687-170.645 170.687zm334.438-443.967c0 34.046-27.411 61.237-61.221 61.237-34.039 0-61.221-27.419-61.221-61.237s27.411-61.237 61.221-61.237c33.811 0 61.221 27.419 61.221 61.237zM1020.4 300.87c-3.882-82.03-22.616-154.691-82.697-214.557C877.85 26.447 805.207 7.711 723.194 3.598c-84.522-4.798-337.866-4.798-422.391 0C219.02 7.482 146.375 26.219 86.294 86.085S7.709 218.612 3.597 300.642c-4.797 84.543-4.797 337.942 0 422.487 3.884 82.027 22.616 154.689 82.697 214.556s132.497 78.601 214.509 82.716c84.524 4.799 337.869 4.799 422.391 0 82.013-3.887 154.657-22.621 214.509-82.716 59.853-59.867 78.587-132.529 82.697-214.556 4.799-84.545 4.799-337.716 0-422.258zM911.204 813.841c-17.818 44.786-52.312 79.286-97.317 97.336-67.393 26.736-227.3 20.568-301.772 20.568-74.475 0-234.614 5.939-301.776-20.568-44.775-17.822-79.27-52.322-97.317-97.336-26.728-67.407-20.56-227.351-20.56-301.842 0-74.489-5.939-234.664 20.56-301.841 17.819-44.785 52.314-79.288 97.317-97.339C277.73 86.085 437.64 92.255 512.115 92.255c74.473 0 234.608-5.941 301.772 20.564 44.777 17.823 79.272 52.325 97.317 97.339 26.726 67.406 20.559 227.352 20.559 301.841s6.167 234.664-20.559 301.842z"/></symbol><symbol fill="none" id="sprite-logo" viewBox="0 0 190 24"><title>logo</title><path d="M.75 19l7.7-17.625h2.85L19 19h-3.25l-1.775-4.225H5.7L3.9 19H.75zm6.075-6.95h6.025l-3.025-7-3 7zM21.651 19V5.8h3.025v2.975c.933-2.25 2.492-3.325 4.675-3.225v3.2h-.175c-1.367 0-2.458.45-3.275 1.35-.817.883-1.225 2.175-1.225 3.875V19h-3.025zm14.752.225c-2.533 0-3.8-1.292-3.8-3.875V8.4h-1.675V5.8h1.675V2.175h3.025V5.8h3.55v2.6h-3.55v6.475c0 1.1.542 1.65 1.625 1.65.65 0 1.275-.15 1.875-.45v2.475c-.8.45-1.708.675-2.725.675zm18.922 0c-2.533 0-3.8-1.292-3.8-3.875V8.4H49.85V5.8h1.675V2.175h3.025V5.8h3.55v2.6h-3.55v6.475c0 1.1.542 1.65 1.625 1.65.65 0 1.275-.15 1.875-.45v2.475c-.8.45-1.708.675-2.725.675zm5.879-15.45V.9h3.25v2.875h-3.25zM61.329 19V5.8h3.025V19h-3.025zm6.978 0V5.8h3.025v2c1.1-1.517 2.442-2.275 4.025-2.275 1.834 0 3.142.775 3.925 2.325 1.184-1.55 2.675-2.325 4.475-2.325 1.45 0 2.584.442 3.4 1.325.817.883 1.225 2.125 1.225 3.725V19h-3.025v-7.5c0-1.05-.233-1.85-.7-2.4-.466-.55-1.125-.825-1.975-.825-.85 0-1.533.292-2.05.875-.516.567-.775 1.367-.775 2.4V19h-3.025v-7.525c0-1.017-.233-1.8-.7-2.35-.466-.567-1.125-.85-1.975-.85-.85 0-1.533.3-2.05.9-.516.583-.775 1.383-.775 2.4V19h-3.025zm29.805.3c-1.933 0-3.55-.642-4.85-1.925-1.283-1.283-1.925-2.942-1.925-4.975 0-1.917.608-3.542 1.825-4.875 1.217-1.333 2.758-2 4.625-2 2 0 3.55.683 4.65 2.05 1.117 1.35 1.675 3.033 1.675 5.05 0 .367-.017.65-.05.85h-9.7c.167 1.05.592 1.875 1.275 2.475.683.583 1.525.875 2.525.875 1.3 0 2.492-.525 3.575-1.575l1.775 1.575c-1.367 1.65-3.167 2.475-5.4 2.475zm-3.775-7.825h6.775c-.1-1.017-.442-1.85-1.025-2.5-.583-.65-1.358-.975-2.325-.975-.917 0-1.683.325-2.3.975-.617.633-.992 1.467-1.125 2.5z" fill="#1B1B1B"/><path d="M129 12.416v-.832a7.326 7.326 0 01-7.074-7.049V4.5h-.852v.035c-.148 3.831-3.22 6.908-7.039 7.049H114v.832h.035c3.826.141 6.898 3.225 7.039 7.049v.035h.852v-.035A7.326 7.326 0 01129 12.416z" fill="#5D5FEF"/><path d="M142.075 19.1L137.8 5.8h3.1l2.65 9.05 2.925-9.1h2.575l2.95 9.1 2.7-9.05h3.025L153.4 19.1h-2.7l-2.95-9.025-2.975 9.025h-2.7zm23.773.2c-1.933 0-3.55-.642-4.85-1.925-1.283-1.283-1.925-2.942-1.925-4.975 0-1.917.609-3.542 1.825-4.875 1.217-1.333 2.759-2 4.625-2 2 0 3.55.683 4.65 2.05 1.117 1.35 1.675 3.033 1.675 5.05 0 .367-.016.65-.05.85h-9.7c.167 1.05.592 1.875 1.275 2.475.684.583 1.525.875 2.525.875 1.3 0 2.492-.525 3.575-1.575l1.775 1.575c-1.366 1.65-3.166 2.475-5.4 2.475zm-3.775-7.825h6.775c-.1-1.017-.441-1.85-1.025-2.5-.583-.65-1.358-.975-2.325-.975-.916 0-1.683.325-2.3.975-.616.633-.991 1.467-1.125 2.5zm20.313 7.8c-1.816 0-3.308-.775-4.475-2.325V19h-3.025V.75h3.025V8c1.167-1.65 2.659-2.475 4.475-2.475 1.667 0 3.109.625 4.325 1.875 1.217 1.233 1.825 2.908 1.825 5.025 0 2.083-.608 3.75-1.825 5-1.216 1.233-2.658 1.85-4.325 1.85zm-.7-2.625c1.067 0 1.959-.392 2.675-1.175.734-.783 1.1-1.817 1.1-3.1 0-1.25-.366-2.267-1.1-3.05-.733-.783-1.625-1.175-2.675-1.175-1.05 0-1.958.4-2.725 1.2-.75.8-1.125 1.825-1.125 3.075 0 1.233.375 2.25 1.125 3.05.767.783 1.675 1.175 2.725 1.175z" fill="#1B1B1B"/></symbol><symbol id="sprite-mail" viewBox="0 0 1024 1024"><title/><path d="M0 112h1024v800H0V112zm117.784 64L512 517.655 906.218 176H117.784zM960 214.079l-315.357 273.31L960 802.746V214.079zM914.745 848L596.156 529.411l-84.157 72.934-84.157-72.934L109.254 848h805.491zM64 802.745l315.357-315.357L64 214.078v588.667z"/></symbol><symbol class="ldi-47ibm8" preserveAspectRatio="xMidYMid" style="width:525px;webkit-user-select:none;webkit-transform-origin:262.5px 262.5px;webkit-perspective-origin:262.5px 262.5px;webkit-logical-width:525px;webkit-logical-height:525px;user-select:none;transform-origin:262.5px 262.5px;r:0;perspective-origin:262.5px 262.5px;overflow-y:hidden;overflow-x:hidden;inline-size:525px;height:525px;d:none;block-size:525px;background:0 0/auto padding-box border-box" pointer-events="all" overflow="hidden" display="block" id="sprite-ok" viewBox="0 0 100 100"><title>ok</title><svg version="1.1" id="圖層_1" xmlns="http://www.w3.org/2000/svg" x="0" y="0" viewBox="0 0 100 100" xml:space="preserve" style="x:0;webkit-user-select:none;webkit-transform-origin:50px 50px;webkit-perspective-origin:0 0;user-select:none;transform-origin:50px 50px;r:0;perspective-origin:0 0;overflow-y:hidden;overflow-x:hidden" pointer-events="all" overflow="hidden" display="block"><g style="x:0;webkit-user-select:none;webkit-transform-origin:50px 50px;webkit-perspective-origin:0 0;user-select:none;transform-origin:50px 50px;r:0;perspective-origin:0 0"><g style="x:0;webkit-user-select:none;webkit-transform-origin:50px 50px;webkit-transform:matrix(.7,0,0,.7,0,0);webkit-perspective-origin:0 0;user-select:none;transform-origin:50px 50px;r:0;perspective-origin:0 0"><g style="x:0;webkit-user-select:none;webkit-transform-origin:50px 50px;webkit-perspective-origin:0 0;user-select:none;transform-origin:50px 50px;r:0;perspective-origin:0 0"><g style="webkit-user-select:none;webkit-perspective-origin:0 0;user-select:none;perspective-origin:0 0" transform="scale(.7)"><style/><g style="y:0;x:0;webkit-user-select:none;webkit-transform-origin:50px 50px;webkit-perspective-origin:0 0;webkit-animation-duration:2.2s;webkit-animation-delay:.169231s;webkit-animation:2.2s ease .169231s 1 normal none running none;user-select:none;transform-origin:50px 50px;r:0;perspective-origin:0 0;d:none"><circle cx="50" cy="50" r="40" stroke="#3c3" style="webkit-user-select:none;webkit-perspective-origin:0 0;user-select:none;r:40px;perspective-origin:0 0;cy:50px;cx:50px" stroke-width="8" stroke-miterlimit="10" fill="none"/></g><g style="x:0;webkit-user-select:none;webkit-transform-origin:50px 50px;webkit-perspective-origin:0 0;user-select:none;transform-origin:50px 50px;r:0;perspective-origin:0 0"><g style="webkit-user-select:none;webkit-perspective-origin:0 0;user-select:none;perspective-origin:0 0"><g style="y:0;x:0;webkit-user-select:none;webkit-transform-origin:50px 50px;webkit-perspective-origin:0 0;webkit-animation-duration:2.2s;webkit-animation-delay:.338462s;webkit-animation:2.2s ease .338462s 1 normal none running none;user-select:none;transform-origin:50px 50px;r:0;perspective-origin:0 0;d:none" class="ld"><path fill="#3c3" style="webkit-user-select:none;webkit-perspective-origin:0 0;user-select:none;r:0;perspective-origin:0 0" d="M43.7 69.4L25 47.7l3.9-3.9 14.8 12.6 28.6-25.8 2.7 2.7z"/></g></g></g></g></g></g></g><style>@keyframes ldt-bounce-in{0%{-webkit-transform:scale(0);transform:scale(0)}5%{-webkit-transform:scale(.0846);transform:scale(.0846)}6%{-webkit-transform:scale(.191);transform:scale(.191)}7%{-webkit-transform:scale(.3255);transform:scale(.3255)}8%{-webkit-transform:scale(.4804);transform:scale(.4804)}9%{-webkit-transform:scale(.646);transform:scale(.646)}10%{-webkit-transform:scale(.8116);transform:scale(.8116)}11%{-webkit-transform:scale(.9665);transform:scale(.9665)}12%{-webkit-transform:scale(1.1);transform:scale(1.1)}13%{-webkit-transform:scale(1.2069);transform:scale(1.2069)}14%{-webkit-transform:scale(1.2796);transform:scale(1.2796)}19%{-webkit-transform:scale(1.1558);transform:scale(1.1558)}20%{-webkit-transform:scale(1.07);transform:scale(1.07)}21%{-webkit-transform:scale(.9823);transform:scale(.9823)}22%{-webkit-transform:scale(.901);transform:scale(.901)}23%{-webkit-transform:scale(.8328);transform:scale(.8328)}25%{-webkit-transform:scale(.7551);transform:scale(.7551)}29%{-webkit-transform:scale(.8516);transform:scale(.8516)}31%{-webkit-transform:scale(.973);transform:scale(.973)}33%{-webkit-transform:scale(1.0857);transform:scale(1.0857)}35%{-webkit-transform:scale(1.1538);transform:scale(1.1538)}40%{-webkit-transform:scale(1.0771);transform:scale(1.0771)}42%{-webkit-transform:scale(.9954);transform:scale(.9954)}45%{-webkit-transform:scale(.9057);transform:scale(.9057)}52%{-webkit-transform:scale(.9908);transform:scale(.9908)}56%{-webkit-transform:scale(1.0623);transform:scale(1.0623)}64%{-webkit-transform:scale(.9845);transform:scale(.9845)}}@-webkit-keyframes ldt-bounce-in{0%{-webkit-transform:scale(0);transform:scale(0)}5%{-webkit-transform:scale(.0846);transform:scale(.0846)}6%{-webkit-transform:scale(.191);transform:scale(.191)}7%{-webkit-transform:scale(.3255);transform:scale(.3255)}8%{-webkit-transform:scale(.4804);transform:scale(.4804)}9%{-webkit-transform:scale(.646);transform:scale(.646)}10%{-webkit-transform:scale(.8116);transform:scale(.8116)}11%{-webkit-transform:scale(.9665);transform:scale(.9665)}12%{-webkit-transform:scale(1.1);transform:scale(1.1)}13%{-webkit-transform:scale(1.2069);transform:scale(1.2069)}14%{-webkit-transform:scale(1.2796);transform:scale(1.2796)}19%{-webkit-transform:scale(1.1558);transform:scale(1.1558)}20%{-webkit-transform:scale(1.07);transform:scale(1.07)}21%{-webkit-transform:scale(.9823);transform:scale(.9823)}22%{-webkit-transform:scale(.901);transform:scale(.901)}23%{-webkit-transform:scale(.8328);transform:scale(.8328)}25%{-webkit-transform:scale(.7551);transform:scale(.7551)}29%{-webkit-transform:scale(.8516);transform:scale(.8516)}31%{-webkit-transform:scale(.973);transform:scale(.973)}33%{-webkit-transform:scale(1.0857);transform:scale(1.0857)}35%{-webkit-transform:scale(1.1538);transform:scale(1.1538)}40%{-webkit-transform:scale(1.0771);transform:scale(1.0771)}42%{-webkit-transform:scale(.9954);transform:scale(.9954)}45%{-webkit-transform:scale(.9057);transform:scale(.9057)}52%{-webkit-transform:scale(.9908);transform:scale(.9908)}56%{-webkit-transform:scale(1.0623);transform:scale(1.0623)}64%{-webkit-transform:scale(.9845);transform:scale(.9845)}}</style></svg></symbol><symbol id="sprite-star" viewBox="0 0 1024 1024"><title/><path d="M1023.999 483.582v56.835c-262.132 8.67-473.281 219.153-482.901 481.174v2.408h-58.197v-2.408c-10.1-261.54-219.807-471.542-480.496-481.174H0v-56.835h2.405C263.576 473.95 473.281 263.465 482.901 2.408V0h58.197v2.408c9.62 262.021 220.769 472.504 482.901 481.174z"/></symbol></svg>