<svg xmlns="http://www.w3.org/2000/svg" xmlns:xlink="http://www.w3.org/1999/xlink"><symbol id="sprite-arrow-btn" viewBox="0 0 1024 1024"><title>arrow-btn</title><path d="M832.025 448c-.026 0-.051 0-.051 64s.026 64 .051 64l-.019.001-.767.008c-.774.012-2.066.035-3.839.088a483.48 483.48 0 00-16.121.775c-14.237.904-34.94 2.735-59.926 6.437-50.3 7.452-116.275 22.237-181.386 51.175-65.05 28.915-127.081 70.969-172.793 131.916-45.121 60.16-77.2 142.464-77.2 257.6h-128c0-140.864 39.921-250.56 102.8-334.4 62.288-83.051 144.257-136.995 223.207-172.084A711.155 711.155 0 01530.729 512a714.291 714.291 0 01-12.748-5.516c-78.949-35.089-160.919-89.033-223.207-172.084-62.879-83.839-102.8-193.535-102.8-334.4h128c0 115.135 32.079 197.439 77.2 257.6 45.712 60.95 107.743 103.005 172.793 131.916 65.111 28.938 131.087 43.723 181.386 51.175 24.987 3.702 45.69 5.533 59.926 6.437a483.48 483.48 0 0016.121.775c1.773.052 3.064.077 3.839.088l.786.009z"/></symbol><symbol id="sprite-arrow-r" viewBox="0 0 1024 1024"><title>arrow-r</title><path d="M1024.007 469.336c-.021 0-.03 0-.03 42.665s.021 42.665.03 42.665h-.021l-.589.01c-.589.01-1.57.027-2.907.076a318.52 318.52 0 00-12.196.65c-10.763.757-26.417 2.28-45.305 5.374-37.988 6.213-87.967 18.574-137.409 42.853-49.304 24.213-97.197 59.812-132.832 112.332-35.439 52.199-60.508 123.655-60.508 222.694h-85.33c0-114.287 29.226-202.835 75.238-270.626 33.217-48.94 74.274-85.731 116.949-113.364H.008v-85.33h739.089c-42.676-27.635-83.731-64.428-116.949-113.365-46.012-67.794-75.238-156.335-75.238-270.625h85.33c0 99.039 25.076 170.493 60.508 222.696 35.646 52.505 83.538 88.12 132.832 112.33 49.451 24.288 99.431 36.64 137.409 42.853 18.894 3.092 34.539 4.618 45.305 5.375 5.374.377 9.514.56 12.196.649 1.346.042 2.32.066 2.907.078l.61.009z"/></symbol><symbol fill="none" id="sprite-brand-01" viewBox="0 0 64 65"><title>brand-01</title><path fill="#1B1B1B" fill-rule="evenodd" d="M32 63.294c17.12 0 31-13.88 31-31 0-17.12-13.88-31-31-31-17.12 0-31 13.88-31 31 0 17.12 13.88 31 31 31zm0 1c17.673 0 32-14.327 32-32 0-17.673-14.327-32-32-32-17.673 0-32 14.327-32 32 0 17.673 14.327 32 32 32z" clip-rule="evenodd"/><path fill="#1B1B1B" fill-rule="evenodd" d="M8.022 14.294c.546 12.204 11.036 22 23.978 22 12.942 0 23.432-9.796 23.978-22H8.022zm-1 0c.545 12.791 11.52 23 24.978 23 13.458 0 24.433-10.209 24.979-23 .014-.332.021-.665.021-1H7c0 .335.007.668.021 1z" clip-rule="evenodd"/><path fill="#1B1B1B" fill-rule="evenodd" d="M3.02 24.294c.564 14.39 13.26 26 28.98 26s28.416-11.61 28.98-26H3.02zm-1.001 0c.564 15 13.771 27 29.981 27s29.417-12 29.981-27c.013-.332.019-.665.019-1H2c0 .335.006.668.019 1z" clip-rule="evenodd"/></symbol><symbol fill="none" id="sprite-brand-02" viewBox="0 0 64 65"><title>brand-02</title><path fill="#1B1B1B" fill-rule="evenodd" d="M63 32.294c0 17.12-13.88 31-31 31-17.12 0-31-13.88-31-31 0-17.12 13.88-31 31-31 17.12 0 31 13.88 31 31zm1 0c0 17.673-14.327 32-32 32-17.673 0-32-14.327-32-32 0-17.673 14.327-32 32-32 17.673 0 32 14.327 32 32z" clip-rule="evenodd"/><path fill="#1B1B1B" fill-rule="evenodd" d="M7.023 49.294c.569-12.172 11.461-22 24.977-22s24.408 9.828 24.977 22H7.023zm-1 0c.567-12.791 11.98-23 25.977-23 13.996 0 25.41 10.209 25.978 23 .015.332.022.665.022 1H6c0-.335.007-.668.022-1z" clip-rule="evenodd"/><path fill="#1B1B1B" fill-rule="evenodd" d="M7.023 15.294c.569 12.171 11.461 22 24.977 22s24.408-9.828 24.977-22H7.023zm-1 0c.567 12.791 11.98 23 25.977 23 13.996 0 25.41-10.209 25.978-23 .015-.332.022-.665.022-1H6c0 .335.007.668.022 1z" clip-rule="evenodd"/><path fill="#1B1B1B" fill-rule="evenodd" d="M49 7.294H15v50h34v-50zm-35-1v52h36v-52H14z" clip-rule="evenodd"/></symbol><symbol fill="none" id="sprite-brand-03" viewBox="0 0 64 65"><title>brand-03</title><path fill="#1B1B1B" fill-rule="evenodd" d="M32 48.294c8.837 0 16-7.163 16-16s-7.163-16-16-16-16 7.163-16 16 7.163 16 16 16zm0 1c9.389 0 17-7.611 17-17s-7.611-17-17-17-17 7.611-17 17 7.611 17 17 17z" clip-rule="evenodd"/><path fill="#1B1B1B" fill-rule="evenodd" d="M63 32.294c0 17.12-13.88 31-31 31-17.12 0-31-13.88-31-31 0-17.12 13.88-31 31-31 17.12 0 31 13.88 31 31zm1 0c0 17.673-14.327 32-32 32-17.673 0-32-14.327-32-32 0-17.673 14.327-32 32-32 17.673 0 32 14.327 32 32z" clip-rule="evenodd"/><path fill="#1B1B1B" fill-rule="evenodd" d="M10.025 53.294c.546-11.096 10.136-20 21.975-20 11.839 0 21.43 8.904 21.975 20h-43.95zm-1.002 0c.547-11.686 10.625-21 22.977-21s22.43 9.314 22.977 21c.015.331.023.665.023 1H9c0-.335.008-.669.023-1zm1.002-42c.546 11.096 10.136 20 21.975 20 11.839 0 21.43-8.904 21.975-20h-43.95zm-1.002 0c.547 11.686 10.625 21 22.977 21s22.43-9.314 22.977-21c.015-.332.023-.665.023-1H9c0 .335.008.668.023 1z" clip-rule="evenodd"/></symbol><symbol fill="none" id="sprite-brand-04" viewBox="0 0 64 65"><title>brand-04</title><path fill="#1B1B1B" fill-rule="evenodd" d="M63 32.294c0 17.12-13.88 31-31 31-17.12 0-31-13.88-31-31 0-17.12 13.88-31 31-31 17.12 0 31 13.88 31 31zm1 0c0 17.673-14.327 32-32 32-17.673 0-32-14.327-32-32 0-17.673 14.327-32 32-32 17.673 0 32 14.327 32 32z" clip-rule="evenodd"/><path fill="#1B1B1B" fill-rule="evenodd" d="M48 47.294v-30c0-8.837-7.163-16-16-16s-16 7.163-16 16v30c0 8.837 7.163 16 16 16s16-7.163 16-16zm-16-47c-9.389 0-17 7.611-17 17v30c0 9.389 7.611 17 17 17s17-7.611 17-17v-30c0-9.389-7.611-17-17-17z" clip-rule="evenodd"/><path fill="#1B1B1B" fill-rule="evenodd" d="M40 24.294H24v16h16v-16zm-17-1v18h18v-18H23z" clip-rule="evenodd"/><path fill="#1B1B1B" fill-rule="evenodd" d="M17 48.294h30c8.837 0 16-7.163 16-16s-7.163-16-16-16H17c-8.837 0-16 7.163-16 16s7.163 16 16 16zm47-16c0-9.389-7.611-17-17-17H17c-9.389 0-17 7.611-17 17s7.611 17 17 17h30c9.389 0 17-7.611 17-17z" clip-rule="evenodd"/></symbol><symbol fill="none" id="sprite-brand-05" viewBox="0 0 64 64"><title>brand-05</title><path fill="#1B1B1B" fill-rule="evenodd" d="M63 32c0 17.12-13.88 31-31 31C14.88 63 1 49.12 1 32 1 14.88 14.88 1 32 1c17.12 0 31 13.88 31 31zm1 0c0 17.673-14.327 32-32 32C14.327 64 0 49.673 0 32 0 14.327 14.327 0 32 0c17.673 0 32 14.327 32 32z" clip-rule="evenodd"/><path fill="#1B1B1B" fill-rule="evenodd" d="M44 51c10.493 0 19-8.507 19-19s-8.507-19-19-19-19 8.507-19 19 8.507 19 19 19zm0 1c11.046 0 20-8.954 20-20s-8.954-20-20-20-20 8.954-20 20 8.954 20 20 20zm-31-6.041C6.341 45.41 1 39.429 1 32c0-7.43 5.341-13.41 12-13.959V45.96zm0 1.003C5.735 46.413 0 39.924 0 32c0-7.924 5.735-14.413 13-14.962.33-.025.664-.038 1-.038v30c-.336 0-.67-.013-1-.038z" clip-rule="evenodd"/><path fill="#1B1B1B" fill-rule="evenodd" d="M36 55.978C23.796 55.432 14 44.942 14 32c0-12.942 9.796-23.432 22-23.978v47.956zm0 1C23.209 56.434 13 45.459 13 32 13 18.542 23.209 7.567 36 7.021A23.44 23.44 0 0137 7v50c-.335 0-.668-.007-1-.021z" clip-rule="evenodd"/></symbol><symbol fill="none" id="sprite-brand-06" viewBox="0 0 64 64"><title>brand-06</title><path fill="#1B1B1B" fill-rule="evenodd" d="M63 32c0 17.12-13.88 31-31 31C14.88 63 1 49.12 1 32 1 14.88 14.88 1 32 1c17.12 0 31 13.88 31 31zm1 0c0 17.673-14.327 32-32 32C14.327 64 0 49.673 0 32 0 14.327 14.327 0 32 0c17.673 0 32 14.327 32 32z" clip-rule="evenodd"/><path fill="#1B1B1B" fill-rule="evenodd" d="M53.113 11h-42v42h42V11zm-43-1v44h44V10h-44z" clip-rule="evenodd"/><path fill="#1B1B1B" fill-rule="evenodd" d="M60.98 22C60.416 36.39 47.72 48 32 48S3.584 36.39 3.02 22h57.96zm1.001 0C61.417 37 48.21 49 32 49S2.583 37 2.019 22A26.614 26.614 0 012 21h60c0 .335-.006.668-.019 1z" clip-rule="evenodd"/></symbol><symbol fill="none" id="sprite-brand-07" viewBox="0 0 64 64"><title>brand-07</title><path fill="#1B1B1B" fill-rule="evenodd" d="M63 32c0 17.12-13.88 31-31 31C14.88 63 1 49.12 1 32 1 14.88 14.88 1 32 1c17.12 0 31 13.88 31 31zm1 0c0 17.673-14.327 32-32 32C14.327 64 0 49.673 0 32 0 14.327 14.327 0 32 0c17.673 0 32 14.327 32 32z" clip-rule="evenodd"/><path fill="#1B1B1B" fill-rule="evenodd" d="M32 2.302L2.302 32 32 61.698 61.7 32 32 2.302zM.887 32L32 63.112 63.114 32 32 .888.887 32z" clip-rule="evenodd"/><path fill="#1B1B1B" fill-rule="evenodd" d="M32 49.586L49.586 32 32 14.414 14.414 32 32 49.586zM51 32L32 13 13 32l19 19 19-19z" clip-rule="evenodd"/><path fill="#1B1B1B" fill-rule="evenodd" d="M32 37.586L37.586 32 32 26.414 26.414 32 32 37.586zM39 32l-7-7-7 7 7 7 7-7z" clip-rule="evenodd"/></symbol><symbol fill="none" id="sprite-brand-08" viewBox="0 0 64 64"><title>brand-08</title><path fill="#1B1B1B" fill-rule="evenodd" d="M63 32c0 17.12-13.88 31-31 31C14.88 63 1 49.12 1 32 1 14.88 14.88 1 32 1c17.12 0 31 13.88 31 31zm1 0c0 17.673-14.327 32-32 32C14.327 64 0 49.673 0 32 0 14.327 14.327 0 32 0c17.673 0 32 14.327 32 32z" clip-rule="evenodd"/><path fill="#1B1B1B" fill-rule="evenodd" d="M32 63c10.493 0 19-8.507 19-19s-8.507-19-19-19-19 8.507-19 19 8.507 19 19 19zm0 1c11.046 0 20-8.954 20-20s-8.954-20-20-20-20 8.954-20 20 8.954 20 20 20z" clip-rule="evenodd"/><path fill="#1B1B1B" fill-rule="evenodd" d="M20 51c10.493 0 19-8.507 19-19s-8.507-19-19-19S1 21.507 1 32s8.507 19 19 19zm0 1c11.046 0 20-8.954 20-20s-8.954-20-20-20S0 20.954 0 32s8.954 20 20 20z" clip-rule="evenodd"/><path fill="#1B1B1B" fill-rule="evenodd" d="M44 51c10.493 0 19-8.507 19-19s-8.507-19-19-19-19 8.507-19 19 8.507 19 19 19zm0 1c11.046 0 20-8.954 20-20s-8.954-20-20-20-20 8.954-20 20 8.954 20 20 20z" clip-rule="evenodd"/><path fill="#1B1B1B" fill-rule="evenodd" d="M32 39c10.493 0 19-8.507 19-19S42.493 1 32 1 13 9.507 13 20s8.507 19 19 19zm0 1c11.046 0 20-8.954 20-20S43.046 0 32 0 12 8.954 12 20s8.954 20 20 20z" clip-rule="evenodd"/></symbol><symbol id="sprite-chevrone" viewBox="0 0 1024 1024"><title>chevrone</title><path d="M568.863 755.16L1024 391.053l-113.729-142.16-398.273 318.616-398.269-318.616L.001 391.053l455.134 364.108c33.244 26.595 80.483 26.595 113.728 0z"/></symbol><symbol fill="none" id="sprite-christmass-logo" viewBox="0 0 196 29"><title>christmass-logo</title><path d="M109.724 17.51c.45-.23.876-.507 1.286-.799.862-.615 1.669-1.346 2.277-2.218a5.39 5.39 0 00.767-1.547c.075-.256.13-.52.225-.77.023-.06.018-.069.077-.082.467-.122.917-.311 1.292-.624.474-.395.844-1.067.72-1.7-.044-.233-.178-.452-.409-.536-.215-.079-.423 0-.601.126-.351.253-.61.646-.822 1.019l-.044.079c.164-.69-.061-1.438-.295-2.107-1.011-2.883-4.053-2.838-2.795.097.046.108.104.215.153.322.439.966.824 2.046.818 3.119a3.663 3.663 0 01-.141.918c-.079.303-.164.604-.266.898-.052.155-.11.308-.183.455-.02.038-.053.127-.093.149a.138.138 0 00-.012.012c.114-.521.137-1.108-.016-1.624-.113-.379-.351-.71-.73-.857-.346-.134-.835-.203-1.118.093-.15.158-.285.533-.053.921.194.326.388.654.55.996.175.369.343.767.382 1.177.043.445-.208.836-.469 1.177a5.844 5.844 0 01-.839.881c-.018.016-.036.032-.056.047.134.13.263.253.395.377z" fill="url(#paint0_radial_1914_2359)"/><path d="M104.355 17.993c-.48-.156-.945-.365-1.394-.59-.95-.476-1.86-1.074-2.599-1.842-.4-.418-.75-.888-1-1.409-.117-.24-.212-.492-.344-.726-.032-.057-.028-.065-.089-.07-.48-.048-.956-.167-1.374-.416-.53-.317-1.001-.925-.98-1.57.01-.236.105-.473.322-.59.2-.109.417-.067.612.033.387.195.705.545.972.881l.056.072c-.27-.656-.166-1.429-.038-2.127.546-3.004 3.559-3.426 2.776-.335-.028.115-.07.227-.101.342-.283 1.022-.493 2.147-.319 3.207.051.312.158.596.284.886.124.286.256.572.404.847.076.144.156.288.253.421.025.035.071.118.115.134.004.001.01.007.013.01-.194-.496-.309-1.075-.239-1.606.052-.392.236-.755.586-.959.319-.185.793-.33 1.119-.078.172.133.364.483.197.901-.14.353-.28.705-.387 1.069-.116.391-.219.81-.195 1.22.027.448.336.796.647 1.094.293.281.623.527.968.74l.061.037-.326.424z" fill="url(#paint1_radial_1914_2359)"/><path d="M13 27.975l7.7-17.625h2.85l7.7 17.625H28l-1.775-4.225H17.95l-1.8 4.225H13zm6.075-6.95H25.1l-3.025-7-3 7zm14.826 6.95v-13.2h3.025v2.975c.933-2.25 2.492-3.325 4.675-3.225v3.2h-.175c-1.367 0-2.458.45-3.275 1.35-.817.883-1.225 2.175-1.225 3.875v5.025h-3.025zm14.752.225c-2.533 0-3.8-1.292-3.8-3.875v-6.95h-1.675v-2.6h1.675V11.15h3.025v3.625h3.55v2.6h-3.55v6.475c0 1.1.542 1.65 1.625 1.65.65 0 1.275-.15 1.875-.45v2.475c-.8.45-1.708.675-2.725.675zm16.25.2c-2.533 0-3.8-1.292-3.8-3.875v-6.95h-1.675v-2.6h1.675V11.35h3.025v3.625h3.55v2.6h-3.55v6.475c0 1.1.542 1.65 1.625 1.65.65 0 1.275-.15 1.875-.45v2.475c-.8.45-1.708.675-2.725.675zm5.879-15.45v-2.875h3.25v2.875h-3.25zm.125 15.225v-13.2h3.025v13.2h-3.025zm6.978 0v-13.2h3.025v2c1.1-1.517 2.442-2.275 4.025-2.275 1.834 0 3.142.775 3.925 2.325 1.184-1.55 2.675-2.325 4.475-2.325 1.45 0 2.584.442 3.4 1.325.817.883 1.225 2.125 1.225 3.725v8.425h-3.025v-7.5c0-1.05-.233-1.85-.7-2.4-.466-.55-1.125-.825-1.975-.825-.85 0-1.533.292-2.05.875-.516.567-.775 1.367-.775 2.4v7.45H86.41V20.65c0-1.017-.233-1.8-.7-2.35-.466-.567-1.125-.85-1.975-.85-.85 0-1.533.3-2.05.9-.516.583-.775 1.383-.775 2.4v7.425h-3.025zm29.805.3c-1.933 0-3.55-.642-4.85-1.925-1.283-1.283-1.925-2.942-1.925-4.975 0-1.917.609-3.542 1.825-4.875 1.217-1.333 2.759-2 4.625-2 2 0 3.55.683 4.65 2.05 1.117 1.35 1.675 3.033 1.675 5.05 0 .367-.016.65-.05.85h-9.7c.167 1.05.592 1.875 1.275 2.475.684.583 1.525.875 2.525.875 1.3 0 2.492-.525 3.575-1.575L113.09 26c-1.366 1.65-3.166 2.475-5.4 2.475zm-3.775-7.825h6.775c-.1-1.017-.441-1.85-1.025-2.5-.583-.65-1.358-.975-2.325-.975-.916 0-1.683.325-2.3.975-.616.633-.991 1.467-1.125 2.5z" fill="#1B1B1B"/><path d="M136.69 19.691v-.832a7.325 7.325 0 01-7.073-7.049v-.035h-.853v.035c-.148 3.831-3.22 6.908-7.039 7.049h-.035v.832h.035c3.826.141 6.898 3.225 7.039 7.049v.035h.853v-.035a7.325 7.325 0 017.073-7.049z" fill="#5D5FEF"/><path d="M148.965 28.35l-4.275-13.3h3.1l2.65 9.05 2.925-9.1h2.575l2.95 9.1 2.7-9.05h3.025l-4.325 13.3h-2.7l-2.95-9.025-2.975 9.025h-2.7zm23.774.2c-1.934 0-3.55-.642-4.85-1.925-1.284-1.283-1.925-2.942-1.925-4.975 0-1.917.608-3.542 1.825-4.875 1.216-1.333 2.758-2 4.625-2 2 0 3.55.683 4.65 2.05 1.116 1.35 1.675 3.033 1.675 5.05 0 .367-.017.65-.05.85h-9.7c.166 1.05.591 1.875 1.275 2.475.683.583 1.525.875 2.525.875 1.3 0 2.491-.525 3.575-1.575l1.775 1.575c-1.367 1.65-3.167 2.475-5.4 2.475zm-3.775-7.825h6.775c-.1-1.017-.442-1.85-1.025-2.5-.584-.65-1.359-.975-2.325-.975-.917 0-1.684.325-2.3.975-.617.633-.992 1.467-1.125 2.5zm20.313 7.8c-1.817 0-3.309-.775-4.475-2.325v2.05h-3.025V10h3.025v7.25c1.166-1.65 2.658-2.475 4.475-2.475 1.666 0 3.108.625 4.325 1.875 1.216 1.233 1.825 2.908 1.825 5.025 0 2.083-.609 3.75-1.825 5-1.217 1.233-2.659 1.85-4.325 1.85zm-.7-2.625c1.066 0 1.958-.392 2.675-1.175.733-.783 1.1-1.817 1.1-3.1 0-1.25-.367-2.267-1.1-3.05-.734-.783-1.625-1.175-2.675-1.175-1.05 0-1.959.4-2.725 1.2-.75.8-1.125 1.825-1.125 3.075 0 1.233.375 2.25 1.125 3.05.766.783 1.675 1.175 2.725 1.175z" fill="#1B1B1B"/><g clip-path="url(#clip0_1914_2359)"><path fill-rule="evenodd" clip-rule="evenodd" d="M24.251 9.785s-1.32-2.807-4.831-4.717c-3.44-1.89-6.376-1.549-9.576.976-5.858 4.633-2.989 17.497-.964 17.353l2.25-.171s-.934-4.506-.015-5.488c.912-.957 13.136-7.953 13.136-7.953z" fill="#B5292A"/><path opacity=".2" fill-rule="evenodd" clip-rule="evenodd" d="M10.867 21.655c-.169-1.195-.26-2.885.057-3.622l.315.372 2.038-3.946c-1.53 3.611-3.815-1.427-4.13-2.147.013-.254.022-.239-.13.157-.509 1.38.656 9.24.656 9.24s.524.005 1.194-.053z" fill="#181714"/><path opacity=".2" fill-rule="evenodd" clip-rule="evenodd" d="M10.266 16.895c-.253-.612-.666-1.953-.666-1.953s.392 3.424.592 4.642c.192 1.201.484 1.915.484 1.915l.174.023c-.144-1.189-.229-2.76.067-3.464l.289.325-.386-.495c.006-.024-.268-.255-.554-.993z" fill="#181714"/><path fill-rule="evenodd" clip-rule="evenodd" d="M11.445 19.701s1.295 2.104 2 2.7c.692.607 1.345-.14 2.256-1.24.91-1.1 3.525-4.188 5.835-5.194 2.317-1.03 4.884-1.938 5.363-2.153 1.45-.652-1.95-5.15-2.803-5.272-4.368-.576-11.105 3.335-12.97 7.303-.78 1.64-.249 2.769.319 3.856z" fill="#fff"/><path d="M11.144 25.823a2.522 2.522 0 10-2.522-4.367 2.522 2.522 0 002.522 4.367z" fill="#fff"/><path opacity=".2" fill-rule="evenodd" clip-rule="evenodd" d="M11.257 21.532a2.5 2.5 0 01.81.846c.692 1.2.282 2.75-.923 3.445a2.516 2.516 0 01-3.444-.924l-.063-.108c.77.5 1.792.566 2.636.079a2.539 2.539 0 00.984-3.338zm15.783-7.82c.03-.017.037-.041.067-.059.015-.008.021-.033.036-.041.006-.024.037-.042.043-.066.006-.024.021-.033.027-.057l.019-.072c.006-.024.012-.048.003-.063.006-.024.012-.048.01-.088.006-.024-.003-.04.003-.063a.137.137 0 00-.005-.08c.006-.023-.012-.054-.006-.078-.002-.04-.011-.055-.014-.095-.002-.04-.011-.054-.014-.094-.003-.04-.012-.055-.014-.094-.003-.04-.012-.055-.015-.095-.017-.03-.02-.07-.029-.085-.018-.03-.02-.07-.038-.101-.018-.03-.02-.07-.038-.101-.018-.03-.021-.07-.039-.101-.018-.03-.02-.07-.038-.101-.018-.03-.03-.086-.047-.117a.213.213 0 01-.038-.1.307.307 0 01-.047-.117l-.054-.092-.07-.123a27.72 27.72 0 01-.054-.092l-.071-.123-.053-.093-.08-.138-.01-.016c-.009.888-.197 1.57-1.418 2.03-1.22.458-4.55 1.437-6.802 3.414-2.243 1.992-3.082 2.764-5.023 3.228-.478.112-1.227.032-1.718-.054.21.33 1.106 1.74 1.74 2.421.083.075.142.143.184.18.009.016.033.023.033.023.69.606 1.344-.14 2.255-1.24.91-1.101 3.525-4.19 5.835-5.195 2.317-1.03 4.884-1.938 5.363-2.153l.12-.07c-.033-.021-.017-.03-.002-.039z" fill="#181714"/><path opacity=".2" fill-rule="evenodd" clip-rule="evenodd" d="M26.468 13.243c-1.053.854-4.638 1.98-6.216 2.83-1.578.85-3.578 2.845-4.963 4.444-.995 1.129-1.86 1.403-2.272 1.456.146.182.298.34.414.438.69.606 1.344-.14 2.255-1.24.91-1.101 3.525-4.19 5.835-5.195 2.317-1.03 4.884-1.938 5.363-2.153.379-.178.427-.616.27-1.202-.16.175-.381.384-.686.622z" fill="#181714"/></g><defs><radialGradient id="paint0_radial_1914_2359" cx="0" cy="0" r="1" gradientUnits="userSpaceOnUse" gradientTransform="matrix(7.5734 .11013 -.1099 7.5578 109.215 10.422)"><stop offset=".087" stop-color="#804B2B"/><stop offset=".345" stop-color="#724022"/><stop offset=".829" stop-color="#4E230A"/><stop offset="1" stop-color="#401800"/></radialGradient><radialGradient id="paint1_radial_1914_2359" cx="0" cy="0" r="1" gradientUnits="userSpaceOnUse" gradientTransform="rotate(170.318 51.41 9.85) scale(7.57232 7.56076)"><stop offset=".087" stop-color="#804B2B"/><stop offset=".345" stop-color="#724022"/><stop offset=".829" stop-color="#4E230A"/><stop offset="1" stop-color="#401800"/></radialGradient><clipPath id="clip0_1914_2359"><path fill="#fff" transform="rotate(-30 21.576 5.781)" d="M0 0h23.126v17.904H0z"/></clipPath></defs></symbol><symbol id="sprite-clip" viewBox="0 0 1024 1024"><title>clip</title><path d="M734.99.022a289.043 289.043 0 00-204.371 84.622L391.263 224.001c-20.523 20.523-20.523 53.797 0 74.32s53.797 20.523 74.32 0l139.35-139.35a183.932 183.932 0 01260.112 260.127L725.703 558.442c-20.522 20.522-20.522 53.797 0 74.319s53.797 20.522 74.319 0L939.38 493.404a289.029 289.029 0 0084.619-204.37 289.014 289.014 0 00-84.656-204.355A289.037 289.037 0 00734.989.022zm-18.619 307.576c20.522 20.523 20.522 53.797 0 74.32L381.932 716.356c-20.523 20.527-53.797 20.527-74.32 0-20.523-20.522-20.523-53.792 0-74.319l334.44-334.438c20.522-20.523 53.797-20.523 74.319 0zm-418.073 83.645c20.523 20.523 20.523 53.797 0 74.32L158.955 604.907a183.932 183.932 0 00260.119 260.117l139.344-139.342c20.522-20.522 53.797-20.522 74.319 0s20.522 53.797 0 74.319L493.386 939.354a289.045 289.045 0 01-408.731-.032 289.037 289.037 0 01-.035-408.725l139.357-139.356c20.523-20.523 53.797-20.523 74.32 0z"/></symbol><symbol id="sprite-facebook" viewBox="0 0 1024 1024"><title>facebook</title><path d="M789.333 7.716v162.032H689.216c-79.401 0-94.361 36.375-94.361 88.181v116.84h188.723l-25.314 181.873H594.855V1024h-196.78V556.642H234.667V374.769h163.408V240.293C398.075 84.875 498.191 0 643.187 0c69.044 0 128.884 4.409 146.147 7.716z"/></symbol><symbol id="sprite-insta" viewBox="0 0 1024 1024"><title>insta</title><path d="M512.115 249.458c-145.293 0-262.484 117.218-262.484 262.541s117.192 262.54 262.484 262.54c145.287 0 262.479-117.215 262.479-262.54 0-145.323-117.192-262.541-262.479-262.541zm0 433.228c-93.892 0-170.65-76.549-170.65-170.687 0-94.14 76.529-170.686 170.65-170.686 94.115 0 170.645 76.546 170.645 170.686 0 94.138-76.758 170.687-170.645 170.687zm334.438-443.967c0 34.046-27.411 61.237-61.221 61.237-34.039 0-61.221-27.419-61.221-61.237s27.411-61.237 61.221-61.237c33.811 0 61.221 27.419 61.221 61.237zM1020.4 300.87c-3.882-82.03-22.616-154.691-82.697-214.557C877.85 26.447 805.207 7.711 723.194 3.598c-84.522-4.798-337.866-4.798-422.391 0C219.02 7.482 146.375 26.219 86.294 86.085S7.709 218.612 3.597 300.642c-4.797 84.543-4.797 337.942 0 422.487 3.884 82.027 22.616 154.689 82.697 214.556s132.497 78.601 214.509 82.716c84.524 4.799 337.869 4.799 422.391 0 82.013-3.887 154.657-22.621 214.509-82.716 59.853-59.867 78.587-132.529 82.697-214.556 4.799-84.545 4.799-337.716 0-422.258zM911.204 813.841c-17.818 44.786-52.312 79.286-97.317 97.336-67.393 26.736-227.3 20.568-301.772 20.568-74.475 0-234.614 5.939-301.776-20.568-44.775-17.822-79.27-52.322-97.317-97.336-26.728-67.407-20.56-227.351-20.56-301.842 0-74.489-5.939-234.664 20.56-301.841 17.819-44.785 52.314-79.288 97.317-97.339C277.73 86.085 437.64 92.255 512.115 92.255c74.473 0 234.608-5.941 301.772 20.564 44.777 17.823 79.272 52.325 97.317 97.339 26.726 67.406 20.559 227.352 20.559 301.841s6.167 234.664-20.559 301.842z"/></symbol><symbol id="sprite-link" viewBox="0 0 1024 1024"><title/><path d="M809.268 122.291a170.775 170.775 0 00-186.146 37.084L521.668 260.828c-21.34 21.341-55.941 21.341-77.283 0s-21.341-55.942 0-77.284L545.8 82.128c.005-.006-.005.006 0 0a280.26 280.26 0 0190.862-60.767A280.056 280.056 0 01743.864.005a280.042 280.042 0 01107.213 21.306 280.06 280.06 0 01151.619 151.615 280.076 280.076 0 0121.302 107.213 280.077 280.077 0 01-82.102 198.047c-.005.006.005-.006 0 0L796.992 623.092a280.118 280.118 0 01-90.862 60.713 280.12 280.12 0 01-107.181 21.318 280.121 280.121 0 01-107.176-21.318 280.109 280.109 0 01-90.861-60.713c-21.341-21.34-21.341-55.942 0-77.283s55.942-21.34 77.284 0a170.75 170.75 0 0055.401 37.018 170.733 170.733 0 0065.353 13c22.427 0 44.636-4.416 65.353-13a170.643 170.643 0 0055.402-37.018l144.909-144.906a170.878 170.878 0 0037.068-55.423 170.713 170.713 0 0013.023-65.367 170.729 170.729 0 00-50.018-120.795 170.693 170.693 0 00-55.418-37.027zM425.049 428.172c-22.426 0-44.633 4.418-65.353 12.999s-39.545 21.161-55.403 37.02L159.387 623.097a170.772 170.772 0 0055.347 278.611c20.727 8.586 42.94 13 65.374 12.995a170.78 170.78 0 00120.771-50.075l101.453-101.454c21.341-21.346 55.943-21.346 77.284 0 21.34 21.34 21.34 55.942 0 77.283L478.2 941.872c-.006.005.006-.005 0 0a280.22 280.22 0 01-90.863 60.768 280.143 280.143 0 01-107.203 21.356 280.197 280.197 0 01-107.213-21.307 280.139 280.139 0 01-90.891-60.724A280.05 280.05 0 010 743.862a280.075 280.075 0 0182.105-198.048c.006-.005-.006.005 0 0l144.906-144.907a280.077 280.077 0 01198.039-82.03 280.079 280.079 0 01198.039 82.03c21.34 21.341 21.34 55.942 0 77.284s-55.942 21.341-77.283 0a170.757 170.757 0 00-120.756-50.019z"/></symbol><symbol fill="none" id="sprite-logo" viewBox="0 0 190 24"><title>logo</title><path fill="#1B1B1B" d="M.75 19l7.7-17.625h2.85L19 19h-3.25l-1.775-4.225H5.7L3.9 19H.75zm6.075-6.95h6.025l-3.025-7-3 7zM21.651 19V5.8h3.025v2.975c.933-2.25 2.492-3.325 4.675-3.225v3.2h-.175c-1.367 0-2.458.45-3.275 1.35-.817.883-1.225 2.175-1.225 3.875V19h-3.025zm14.752.225c-2.533 0-3.8-1.292-3.8-3.875V8.4h-1.675V5.8h1.675V2.175h3.025V5.8h3.55v2.6h-3.55v6.475c0 1.1.542 1.65 1.625 1.65.65 0 1.275-.15 1.875-.45v2.475c-.8.45-1.708.675-2.725.675zm18.922 0c-2.533 0-3.8-1.292-3.8-3.875V8.4H49.85V5.8h1.675V2.175h3.025V5.8h3.55v2.6h-3.55v6.475c0 1.1.542 1.65 1.625 1.65.65 0 1.275-.15 1.875-.45v2.475c-.8.45-1.708.675-2.725.675zm5.879-15.45V.9h3.25v2.875h-3.25zM61.329 19V5.8h3.025V19h-3.025zm6.978 0V5.8h3.025v2c1.1-1.517 2.442-2.275 4.025-2.275 1.834 0 3.142.775 3.925 2.325 1.184-1.55 2.675-2.325 4.475-2.325 1.45 0 2.584.442 3.4 1.325.817.883 1.225 2.125 1.225 3.725V19h-3.025v-7.5c0-1.05-.233-1.85-.7-2.4-.466-.55-1.125-.825-1.975-.825-.85 0-1.533.292-2.05.875-.516.567-.775 1.367-.775 2.4V19h-3.025v-7.525c0-1.017-.233-1.8-.7-2.35-.466-.567-1.125-.85-1.975-.85-.85 0-1.533.3-2.05.9-.516.583-.775 1.383-.775 2.4V19h-3.025zm29.805.3c-1.933 0-3.55-.642-4.85-1.925-1.283-1.283-1.925-2.942-1.925-4.975 0-1.917.608-3.542 1.825-4.875 1.217-1.333 2.758-2 4.625-2 2 0 3.55.683 4.65 2.05 1.117 1.35 1.675 3.033 1.675 5.05 0 .367-.017.65-.05.85h-9.7c.167 1.05.592 1.875 1.275 2.475.683.583 1.525.875 2.525.875 1.3 0 2.492-.525 3.575-1.575l1.775 1.575c-1.367 1.65-3.167 2.475-5.4 2.475zm-3.775-7.825h6.775c-.1-1.017-.442-1.85-1.025-2.5-.583-.65-1.358-.975-2.325-.975-.917 0-1.683.325-2.3.975-.617.633-.992 1.467-1.125 2.5z"/><path fill="#5D5FEF" d="M129 12.416v-.832a7.326 7.326 0 01-7.074-7.049V4.5h-.852v.035c-.148 3.831-3.22 6.908-7.039 7.049H114v.832h.035c3.826.141 6.898 3.225 7.039 7.049v.035h.852v-.035A7.326 7.326 0 01129 12.416z"/><path fill="#1B1B1B" d="M142.075 19.1L137.8 5.8h3.1l2.65 9.05 2.925-9.1h2.575l2.95 9.1 2.7-9.05h3.025L153.4 19.1h-2.7l-2.95-9.025-2.975 9.025h-2.7zm23.773.2c-1.933 0-3.55-.642-4.85-1.925-1.283-1.283-1.925-2.942-1.925-4.975 0-1.917.609-3.542 1.825-4.875 1.217-1.333 2.759-2 4.625-2 2 0 3.55.683 4.65 2.05 1.117 1.35 1.675 3.033 1.675 5.05 0 .367-.016.65-.05.85h-9.7c.167 1.05.592 1.875 1.275 2.475.684.583 1.525.875 2.525.875 1.3 0 2.492-.525 3.575-1.575l1.775 1.575c-1.366 1.65-3.166 2.475-5.4 2.475zm-3.775-7.825h6.775c-.1-1.017-.441-1.85-1.025-2.5-.583-.65-1.358-.975-2.325-.975-.916 0-1.683.325-2.3.975-.616.633-.991 1.467-1.125 2.5zm20.313 7.8c-1.816 0-3.308-.775-4.475-2.325V19h-3.025V.75h3.025V8c1.167-1.65 2.659-2.475 4.475-2.475 1.667 0 3.109.625 4.325 1.875 1.217 1.233 1.825 2.908 1.825 5.025 0 2.083-.608 3.75-1.825 5-1.216 1.233-2.658 1.85-4.325 1.85zm-.7-2.625c1.067 0 1.959-.392 2.675-1.175.734-.783 1.1-1.817 1.1-3.1 0-1.25-.366-2.267-1.1-3.05-.733-.783-1.625-1.175-2.675-1.175-1.05 0-1.958.4-2.725 1.2-.75.8-1.125 1.825-1.125 3.075 0 1.233.375 2.25 1.125 3.05.767.783 1.675 1.175 2.725 1.175z"/></symbol><symbol id="sprite-mail" viewBox="0 0 1024 1024"><title>mail</title><path d="M0 112h1024v800H0V112zm117.784 64L512 517.655 906.218 176H117.784zM960 214.079l-315.357 273.31L960 802.746V214.079zM914.745 848L596.156 529.411l-84.157 72.934-84.157-72.934L109.254 848h805.491zM64 802.745l315.357-315.357L64 214.078v588.667z"/></symbol><symbol class="ldi-47ibm8" display="block" overflow="hidden" pointer-events="all" preserveAspectRatio="xMidYMid" style="width:525px;webkit-user-select:none;webkit-transform-origin:262.5px 262.5px;webkit-perspective-origin:262.5px 262.5px;webkit-logical-width:525px;webkit-logical-height:525px;user-select:none;transform-origin:262.5px 262.5px;r:0;perspective-origin:262.5px 262.5px;overflow-y:hidden;overflow-x:hidden;inline-size:525px;height:525px;d:none;block-size:525px;background:0 0/auto padding-box border-box" id="sprite-ok" viewBox="0 0 100 100"><title>ok</title><svg xmlns="http://www.w3.org/2000/svg" id="圖層_1" x="0" y="0" display="block" overflow="hidden" pointer-events="all" version="1.1" viewBox="0 0 100 100" xml:space="preserve" style="x:0;webkit-user-select:none;webkit-transform-origin:50px 50px;webkit-perspective-origin:0 0;user-select:none;transform-origin:50px 50px;r:0;perspective-origin:0 0;overflow-y:hidden;overflow-x:hidden"><g style="x:0;webkit-user-select:none;webkit-transform-origin:50px 50px;webkit-perspective-origin:0 0;user-select:none;transform-origin:50px 50px;r:0;perspective-origin:0 0"><g style="x:0;webkit-user-select:none;webkit-transform-origin:50px 50px;webkit-transform:matrix(.7,0,0,.7,0,0);webkit-perspective-origin:0 0;user-select:none;transform-origin:50px 50px;r:0;perspective-origin:0 0"><g style="x:0;webkit-user-select:none;webkit-transform-origin:50px 50px;webkit-perspective-origin:0 0;user-select:none;transform-origin:50px 50px;r:0;perspective-origin:0 0"><g style="webkit-user-select:none;webkit-perspective-origin:0 0;user-select:none;perspective-origin:0 0" transform="scale(.7)"><style/><g style="y:0;x:0;webkit-user-select:none;webkit-transform-origin:50px 50px;webkit-perspective-origin:0 0;webkit-animation-duration:2.2s;webkit-animation-delay:.169231s;webkit-animation:2.2s ease .169231s 1 normal none running none;user-select:none;transform-origin:50px 50px;r:0;perspective-origin:0 0;d:none"><circle cx="50" cy="50" r="40" fill="none" stroke="#3c3" style="webkit-user-select:none;webkit-perspective-origin:0 0;user-select:none;r:40px;perspective-origin:0 0;cy:50px;cx:50px" stroke-miterlimit="10" stroke-width="8"/></g><g style="x:0;webkit-user-select:none;webkit-transform-origin:50px 50px;webkit-perspective-origin:0 0;user-select:none;transform-origin:50px 50px;r:0;perspective-origin:0 0"><g style="webkit-user-select:none;webkit-perspective-origin:0 0;user-select:none;perspective-origin:0 0"><g style="y:0;x:0;webkit-user-select:none;webkit-transform-origin:50px 50px;webkit-perspective-origin:0 0;webkit-animation-duration:2.2s;webkit-animation-delay:.338462s;webkit-animation:2.2s ease .338462s 1 normal none running none;user-select:none;transform-origin:50px 50px;r:0;perspective-origin:0 0;d:none"><path fill="#3c3" style="webkit-user-select:none;webkit-perspective-origin:0 0;user-select:none;r:0;perspective-origin:0 0" d="M43.7 69.4L25 47.7l3.9-3.9 14.8 12.6 28.6-25.8 2.7 2.7z"/></g></g></g></g></g></g></g><style>@keyframes ldt-bounce-in{0%{-webkit-transform:scale(0);transform:scale(0)}5%{-webkit-transform:scale(.0846);transform:scale(.0846)}6%{-webkit-transform:scale(.191);transform:scale(.191)}7%{-webkit-transform:scale(.3255);transform:scale(.3255)}8%{-webkit-transform:scale(.4804);transform:scale(.4804)}9%{-webkit-transform:scale(.646);transform:scale(.646)}10%{-webkit-transform:scale(.8116);transform:scale(.8116)}11%{-webkit-transform:scale(.9665);transform:scale(.9665)}12%{-webkit-transform:scale(1.1);transform:scale(1.1)}13%{-webkit-transform:scale(1.2069);transform:scale(1.2069)}14%{-webkit-transform:scale(1.2796);transform:scale(1.2796)}19%{-webkit-transform:scale(1.1558);transform:scale(1.1558)}20%{-webkit-transform:scale(1.07);transform:scale(1.07)}21%{-webkit-transform:scale(.9823);transform:scale(.9823)}22%{-webkit-transform:scale(.901);transform:scale(.901)}23%{-webkit-transform:scale(.8328);transform:scale(.8328)}25%{-webkit-transform:scale(.7551);transform:scale(.7551)}29%{-webkit-transform:scale(.8516);transform:scale(.8516)}31%{-webkit-transform:scale(.973);transform:scale(.973)}33%{-webkit-transform:scale(1.0857);transform:scale(1.0857)}35%{-webkit-transform:scale(1.1538);transform:scale(1.1538)}40%{-webkit-transform:scale(1.0771);transform:scale(1.0771)}42%{-webkit-transform:scale(.9954);transform:scale(.9954)}45%{-webkit-transform:scale(.9057);transform:scale(.9057)}52%{-webkit-transform:scale(.9908);transform:scale(.9908)}56%{-webkit-transform:scale(1.0623);transform:scale(1.0623)}64%{-webkit-transform:scale(.9845);transform:scale(.9845)}}@-webkit-keyframes ldt-bounce-in{0%{-webkit-transform:scale(0);transform:scale(0)}5%{-webkit-transform:scale(.0846);transform:scale(.0846)}6%{-webkit-transform:scale(.191);transform:scale(.191)}7%{-webkit-transform:scale(.3255);transform:scale(.3255)}8%{-webkit-transform:scale(.4804);transform:scale(.4804)}9%{-webkit-transform:scale(.646);transform:scale(.646)}10%{-webkit-transform:scale(.8116);transform:scale(.8116)}11%{-webkit-transform:scale(.9665);transform:scale(.9665)}12%{-webkit-transform:scale(1.1);transform:scale(1.1)}13%{-webkit-transform:scale(1.2069);transform:scale(1.2069)}14%{-webkit-transform:scale(1.2796);transform:scale(1.2796)}19%{-webkit-transform:scale(1.1558);transform:scale(1.1558)}20%{-webkit-transform:scale(1.07);transform:scale(1.07)}21%{-webkit-transform:scale(.9823);transform:scale(.9823)}22%{-webkit-transform:scale(.901);transform:scale(.901)}23%{-webkit-transform:scale(.8328);transform:scale(.8328)}25%{-webkit-transform:scale(.7551);transform:scale(.7551)}29%{-webkit-transform:scale(.8516);transform:scale(.8516)}31%{-webkit-transform:scale(.973);transform:scale(.973)}33%{-webkit-transform:scale(1.0857);transform:scale(1.0857)}35%{-webkit-transform:scale(1.1538);transform:scale(1.1538)}40%{-webkit-transform:scale(1.0771);transform:scale(1.0771)}42%{-webkit-transform:scale(.9954);transform:scale(.9954)}45%{-webkit-transform:scale(.9057);transform:scale(.9057)}52%{-webkit-transform:scale(.9908);transform:scale(.9908)}56%{-webkit-transform:scale(1.0623);transform:scale(1.0623)}64%{-webkit-transform:scale(.9845);transform:scale(.9845)}}</style></svg></symbol><symbol id="sprite-planet" viewBox="0 0 1024 1024"><title>planet</title><path d="M512 102.4c-226.216 0-409.6 183.384-409.6 409.6S285.784 921.6 512 921.6c226.217 0 409.6-183.383 409.6-409.6S738.217 102.4 512 102.4zM0 512C0 229.23 229.23 0 512 0c282.767 0 512 229.23 512 512 0 282.767-229.233 512-512 512C229.23 1024 0 794.767 0 512z"/><path d="M0 512c0-28.277 22.923-51.2 51.2-51.2h921.6c28.278 0 51.2 22.923 51.2 51.2s-22.922 51.2-51.2 51.2H51.2C22.923 563.2 0 540.278 0 512z"/><path d="M423.303 215.063c-31.42 73.384-52.103 178.332-52.103 296.936 0 118.606 20.683 223.55 52.103 296.935 15.75 36.782 33.188 63.278 49.945 79.831 16.537 16.338 29.575 20.465 38.753 20.465 9.18 0 22.216-4.127 38.753-20.465 16.758-16.553 34.196-43.049 49.946-79.831 31.416-73.385 52.101-178.33 52.101-296.935S632.116 288.447 600.7 215.063c-15.749-36.784-33.188-63.278-49.946-79.83-16.538-16.337-29.573-20.464-38.753-20.464-9.178 0-22.216 4.127-38.753 20.464-16.756 16.552-34.195 43.046-49.945 79.83zm-22.02-152.678C430.687 33.338 468.159 12.369 512 12.369c43.843 0 81.316 20.969 110.715 50.016 29.189 28.831 53.12 68.008 72.115 112.374C732.902 263.675 755.2 382.943 755.2 512s-22.298 248.326-60.37 337.24c-18.995 44.365-42.926 83.543-72.115 112.374-29.399 29.046-66.872 50.017-110.715 50.017-43.841 0-81.313-20.972-110.717-50.017-29.185-28.831-53.118-68.009-72.114-112.374-38.07-88.914-60.368-208.184-60.368-337.24s22.298-248.325 60.368-337.241c18.996-44.366 42.93-83.543 72.114-112.374z"/></symbol><symbol id="sprite-star" viewBox="0 0 1024 1024"><title>star</title><path d="M1023.999 483.582v56.836c-262.132 8.67-473.28 219.152-482.901 481.174V1024h-58.197v-2.408C472.799 760.053 263.095 550.05 2.405 540.418H.001v-56.836h2.404c261.171-9.633 470.876-220.117 480.496-481.174V0h58.197v2.408c9.621 262.021 220.769 472.504 482.901 481.174z"/></symbol></svg>