<svg xmlns="http://www.w3.org/2000/svg" fill="none" viewBox="0 0 948 224"><path fill="#1B1B1B" d="M767.547 208.636l-1.024-11.393-6.085 1.63-1.885-7.031 7.303-1.957-1.192-12.291-6.761 1.812-1.885-7.032 7.979-2.138-1.019-11.104 7.235-1.939 1.019 11.105 11.089-2.971-1.087-11.087 7.235-1.938 1.019 11.104 6.017-1.612 1.885 7.032-7.235 1.938 1.191 12.291 6.762-1.812 1.884 7.032-7.978 2.138 1.023 11.393-7.234 1.939-1.024-11.394-11.089 2.971 1.091 11.376-7.234 1.938zm5.476-20.672l11.089-2.971-1.124-12.308-11.089 2.971 1.124 12.308zm41.123 8.186l-12.682-47.331 21.231-5.688c5.454-1.462 9.953-1.17 13.497.876 2.686 1.551 4.458 3.927 5.316 7.127 1.256 4.688-.056 8.808-3.935 12.36 6.833.44 11.004 3.477 12.514 9.111 1.111 4.147.391 7.771-2.16 10.87-2.552 3.099-6.509 5.368-11.873 6.805l-21.908 5.87zm.844-29.576l11.359-3.044c2.75-.737 4.769-1.858 6.057-3.362 1.32-1.562 1.691-3.425 1.111-5.588-.507-1.893-1.621-3.165-3.341-3.815-1.732-.696-3.928-.687-6.588.026l-11.968 3.206 3.37 12.577zm5.363 20.014l13.793-3.696c2.885-.773 4.966-1.935 6.241-3.484 1.321-1.562 1.692-3.425 1.112-5.588-1.135-4.238-4.949-5.487-11.44-3.747l-13.185 3.533 3.479 12.982zm54.148-5.813c-3.967 1.063-7.409.657-10.327-1.219-2.918-1.875-4.939-4.909-6.062-9.101l-6.088-22.718 8.182-2.193 5.435 20.285c.749 2.795 1.982 4.783 3.7 5.966 1.751 1.125 3.843 1.361 6.278.709 2.389-.64 4.116-1.948 5.18-3.925 1.065-1.976 1.229-4.339.492-7.089l-5.399-20.149 8.182-2.192 9.566 35.701-8.182 2.192-1.485-5.545c-1.717 4.953-4.874 8.046-9.472 9.278zm48.249-1.985c-5.951 1.594-11.65 1.599-17.099.016l1.394-6.969c4.733 1.438 9.309 1.565 13.726.381 3.651-.978 6.193-2.674 7.624-5.087 1.443-2.367 1.687-5.331.733-8.892l-.743-2.773c-2.209 5.279-5.815 8.588-10.819 9.929-4.417 1.184-8.637.672-12.659-1.536s-6.715-5.858-8.08-10.952c-1.352-5.049-.839-9.534 1.54-13.457 2.424-3.935 5.822-6.488 10.195-7.66 4.958-1.328 9.671-.417 14.139 2.734l-1.431-5.342 8.181-2.192 7.609 28.398c1.595 5.951 1.287 10.84-.924 14.67-2.343 4.058-6.805 6.968-13.386 8.732zm-4.868-20.872c2.885-.773 5.094-2.355 6.627-4.747 1.566-2.448 1.963-5.115 1.19-8-.773-2.885-2.444-4.974-5.013-6.266-2.523-1.305-5.228-1.571-8.113-.798-2.884.773-5.048 2.344-6.492 4.711-1.455 2.322-1.784 4.971-.987 7.946.773 2.885 2.377 4.992 4.81 6.321 2.479 1.316 5.138 1.594 7.978.833z"/><path stroke="#1B1B1B" d="M1 98.596c232 84 326-67 251.5-87.503-74.5-20.504-84 127.001 46 158.502C428.5 201.096 624 24.91 550 2.596c-74-22.313-108.5 250.5 340.5 166.999"/></svg>