<svg xmlns="http://www.w3.org/2000/svg" viewBox="0 0 1024 1024"><path d="M832.025 448c-.026 0-.051 0-.051 64s.026 64 .051 64l-.019.001-.767.008c-.774.012-2.066.035-3.839.088a483.48 483.48 0 0 0-16.121.775c-14.237.904-34.94 2.735-59.926 6.437-50.3 7.452-116.275 22.237-181.386 51.175-65.05 28.915-127.081 70.969-172.793 131.916-45.121 60.16-77.2 142.464-77.2 257.6h-128c0-140.864 39.921-250.56 102.8-334.4 62.288-83.051 144.257-136.995 223.207-172.084A711.155 711.155 0 0 1 530.729 512a714.291 714.291 0 0 1-12.748-5.516c-78.949-35.089-160.919-89.033-223.207-172.084-62.879-83.839-102.8-193.535-102.8-334.4h128c0 115.135 32.079 197.439 77.2 257.6 45.712 60.95 107.743 103.005 172.793 131.916 65.111 28.938 131.087 43.723 181.386 51.175 24.987 3.702 45.69 5.533 59.926 6.437a483.48 483.48 0 0 0 16.121.775c1.773.052 3.064.077 3.839.088l.786.009z"/></svg>