<!-- Generated by IcoMoon.io -->
<svg version="1.1" xmlns="http://www.w3.org/2000/svg" width="1024" height="1024" viewBox="0 0 1024 1024">
<title></title>
<g id="icomoon-ignore">
</g>
<path fill="#000" d="M832.025 448c-0.026 0-0.051 0-0.051 64s0.026 64 0.051 64l-0.019 0.001-0.767 0.008c-0.774 0.012-2.066 0.035-3.839 0.088-3.548 0.106-9.013 0.323-16.121 0.775-14.237 0.904-34.94 2.735-59.926 6.437-50.3 7.452-116.275 22.237-181.386 51.175-65.050 28.915-127.081 70.969-172.793 131.916-45.121 60.16-77.2 142.464-77.2 257.6h-128c0-140.864 39.921-250.56 102.8-334.4 62.288-83.051 144.257-136.995 223.207-172.084 4.253-1.89 8.503-3.728 12.748-5.516-4.244-1.788-8.495-3.626-12.748-5.516-78.949-35.089-160.919-89.033-223.207-172.084-62.879-83.839-102.8-193.535-102.8-334.4h128c0 115.135 32.079 197.439 77.2 257.6 45.712 60.95 107.743 103.005 172.793 131.916 65.111 28.938 131.087 43.723 181.386 51.175 24.987 3.702 45.69 5.533 59.926 6.437 7.108 0.452 12.573 0.669 16.121 0.775 1.773 0.052 3.064 0.077 3.839 0.088l0.786 0.009z"></path>
</svg>
