<svg xmlns="http://www.w3.org/2000/svg" viewBox="0 0 1024 1024"><path d="M1024.007 469.336c-.021 0-.03 0-.03 42.665s.021 42.665.03 42.665h-.021l-.589.01c-.589.01-1.57.027-2.907.076a318.52 318.52 0 0 0-12.196.65c-10.763.757-26.417 2.28-45.305 5.374-37.988 6.213-87.967 18.574-137.409 42.853-49.304 24.213-97.197 59.812-132.832 112.332-35.439 52.199-60.508 123.655-60.508 222.694h-85.33c0-114.287 29.226-202.835 75.238-270.626 33.217-48.94 74.274-85.731 116.949-113.364H.008v-85.33h739.089c-42.676-27.635-83.731-64.428-116.949-113.365-46.012-67.794-75.238-156.335-75.238-270.625h85.33c0 99.039 25.076 170.493 60.508 222.696 35.646 52.505 83.538 88.12 132.832 112.33 49.451 24.288 99.431 36.64 137.409 42.853 18.894 3.092 34.539 4.618 45.305 5.375 5.374.377 9.514.56 12.196.649 1.346.042 2.32.066 2.907.078l.61.009z"/></svg>