<svg xmlns="http://www.w3.org/2000/svg" viewBox="0 0 512 512"><path d="M504 256C504 119.04 392.96 8 256 8S8 119.04 8 256c0 136.96 111.04 248 248 248s248-111.04 248-248zm8 0c0 141.384-114.616 256-256 256S0 397.384 0 256C0 114.616 114.616 0 256 0s256 114.616 256 256z"/><path d="M256 504c-83.944 0-152-68.056-152-152s68.056-152 152-152 152 68.056 152 152-68.056 152-152 152zm0 8c88.368 0 160-71.632 160-160s-71.632-160-160-160S96 263.632 96 352s71.632 160 160 160z"/><path d="M160 408C76.056 408 8 339.944 8 256s68.056-152 152-152 152 68.056 152 152-68.056 152-152 152zm0 8c88.368 0 160-71.632 160-160S248.368 96 160 96 0 167.632 0 256s71.632 160 160 160z"/><path d="M352 408c-83.944 0-152-68.056-152-152s68.056-152 152-152 152 68.056 152 152-68.056 152-152 152zm0 8c88.368 0 160-71.632 160-160S440.368 96 352 96s-160 71.632-160 160 71.632 160 160 160z"/><path d="M256 312c-83.944 0-152-68.056-152-152S172.056 8 256 8s152 68.056 152 152-68.056 152-152 152zm0 8c88.368 0 160-71.632 160-160S344.368 0 256 0 96 71.632 96 160s71.632 160 160 160z"/></svg>