<svg xmlns="http://www.w3.org/2000/svg" fill="none" viewBox="0 0 64 65"><path fill="#1B1B1B" fill-rule="evenodd" d="M32 48.294c8.837 0 16-7.163 16-16s-7.163-16-16-16-16 7.163-16 16 7.163 16 16 16zm0 1c9.389 0 17-7.611 17-17s-7.611-17-17-17-17 7.611-17 17 7.611 17 17 17z" clip-rule="evenodd"/><path fill="#1B1B1B" fill-rule="evenodd" d="M63 32.294c0 17.12-13.88 31-31 31-17.12 0-31-13.88-31-31 0-17.12 13.88-31 31-31 17.12 0 31 13.88 31 31zm1 0c0 17.673-14.327 32-32 32-17.673 0-32-14.327-32-32 0-17.673 14.327-32 32-32 17.673 0 32 14.327 32 32z" clip-rule="evenodd"/><path fill="#1B1B1B" fill-rule="evenodd" d="M10.025 53.294c.546-11.096 10.136-20 21.975-20 11.839 0 21.43 8.904 21.975 20h-43.95zm-1.002 0c.547-11.686 10.625-21 22.977-21s22.43 9.314 22.977 21c.015.331.023.665.023 1H9c0-.335.008-.669.023-1zM10.025 11.294c.546 11.096 10.136 20 21.975 20 11.839 0 21.43-8.904 21.975-20h-43.95zm-1.002 0c.547 11.686 10.625 21 22.977 21s22.43-9.314 22.977-21c.015-.332.023-.665.023-1H9c0 .335.008.668.023 1z" clip-rule="evenodd"/></svg>