<svg xmlns="http://www.w3.org/2000/svg" viewBox="0 0 512 512"><path d="M504 256C504 119.04 392.96 8 256 8S8 119.04 8 256c0 136.96 111.04 248 248 248s248-111.04 248-248zm8 0c0 141.384-114.616 256-256 256S0 397.384 0 256C0 114.616 114.616 0 256 0s256 114.616 256 256z"/><path d="M352 408c-83.944 0-152-68.056-152-152s68.056-152 152-152 152 68.056 152 152-68.056 152-152 152zm0 8c88.368 0 160-71.632 160-160S440.368 96 352 96s-160 71.632-160 160 71.632 160 160 160zm-248-48.32V144.328C50.728 148.72 8 196.56 8 256c0 59.432 42.728 107.28 96 111.672zm0 8.016C45.88 371.304 0 319.392 0 256s45.88-115.304 104-119.696c2.64-.2 5.312-.304 8-.304v240c-2.688 0-5.36-.104-8-.304z"/><path d="M288 447.824V64.176C190.368 68.544 112 152.464 112 256s78.368 187.456 176 191.824zm0 8C185.672 451.472 104 363.672 104 256c0-107.664 81.672-195.464 184-199.832 2.368-.107 5.145-.168 7.936-.168h.067H296v400c-2.68 0-5.344-.056-8-.168z"/></svg>