<svg xmlns="http://www.w3.org/2000/svg" viewBox="0 0 512 512"><path d="M256 384c-70.696 0-128-57.304-128-128s57.304-128 128-128 128 57.304 128 128-57.304 128-128 128zm0 8c75.112 0 136-60.889 136-136s-60.889-136-136-136-136 60.888-136 136 60.888 136 136 136z"/><path d="M504 256C504 119.04 392.96 8 256 8S8 119.04 8 256c0 136.96 111.04 248 248 248s248-111.04 248-248zm8 0c0 141.384-114.616 256-256 256S0 397.384 0 256C0 114.616 114.616 0 256 0s256 114.616 256 256z"/><path d="M80.2 424h351.601c-4.36-88.768-81.088-160-175.8-160s-171.432 71.232-175.8 160zm-8.016 0c4.376-93.488 85-168 183.816-168s179.44 74.512 183.816 168c.12 2.648.184 5.32.184 8H72c0-2.68.064-5.352.184-8zM80.2 88h351.601c-4.36 88.768-81.088 160-175.8 160S84.569 176.768 80.201 88zm-8.016 0c4.376 93.488 85 168 183.816 168s179.44-74.512 183.816-168c.12-2.656.184-5.32.184-8H72c0 2.68.064 5.344.184 8z"/></svg>