<svg xmlns="http://www.w3.org/2000/svg" fill="none" viewBox="0 0 64 64"><path fill="#1B1B1B" fill-rule="evenodd" d="M63 32c0 17.12-13.88 31-31 31C14.88 63 1 49.12 1 32 1 14.88 14.88 1 32 1c17.12 0 31 13.88 31 31zm1 0c0 17.673-14.327 32-32 32C14.327 64 0 49.673 0 32 0 14.327 14.327 0 32 0c17.673 0 32 14.327 32 32z" clip-rule="evenodd"/><path fill="#1B1B1B" fill-rule="evenodd" d="M53.113 11h-42v42h42V11zm-43-1v44h44V10h-44z" clip-rule="evenodd"/><path fill="#1B1B1B" fill-rule="evenodd" d="M60.98 22C60.416 36.39 47.72 48 32 48S3.584 36.39 3.02 22h57.96zm1.001 0C61.417 37 48.21 49 32 49S2.583 37 2.019 22A26.614 26.614 0 0 1 2 21h60c0 .335-.006.668-.019 1z" clip-rule="evenodd"/></svg>