<svg xmlns="http://www.w3.org/2000/svg" viewBox="0 0 512 512"><path d="M504 256C504 119.04 392.96 8 256 8S8 119.04 8 256c0 136.96 111.04 248 248 248s248-111.04 248-248zm8 0c0 141.384-114.616 256-256 256S0 397.384 0 256C0 114.616 114.616 0 256 0s256 114.616 256 256z"/><path d="M424.904 88v336h-336V88h336zm-344-8v352h352V80h-352z"/><path d="M487.84 176H24.16C28.672 291.12 130.24 384 256 384s227.328-92.88 231.84-208zm8.008 0C491.336 296 385.68 392 256 392S20.664 296 16.152 176a206.47 206.47 0 0 1-.152-7.998V168h480c0 2.68-.048 5.344-.152 8z"/></svg>