<svg xmlns="http://www.w3.org/2000/svg" viewBox="0 0 512 512"><path d="M504 256C504 119.04 392.96 8 256 8S8 119.04 8 256c0 136.96 111.04 248 248 248s248-111.04 248-248zm8 0c0 141.384-114.616 256-256 256S0 397.384 0 256C0 114.616 114.616 0 256 0s256 114.616 256 256z"/><path d="M384 376c0 70.696-57.304 128-128 128s-128-57.304-128-128V136C128 65.304 185.304 8 256 8s128 57.304 128 128v240zM256 0c-75.112 0-136 60.889-136 136v240c0 75.112 60.888 136 136 136s136-60.889 136-136V136C392 60.888 331.111 0 256 0z"/><path d="M320 192v128H192V192h128zm-136-8v144h144V184H184z"/><path d="M136 384C65.304 384 8 326.696 8 256s57.304-128 128-128h240c70.696 0 128 57.304 128 128s-57.304 128-128 128H136zm376-128c0-75.112-60.889-136-136-136H136C60.888 120 0 180.888 0 256s60.889 136 136 136h240c75.112 0 136-60.889 136-136z"/></svg>