<svg xmlns="http://www.w3.org/2000/svg" viewBox="0 0 512 512"><path d="M504 256C504 119.04 392.96 8 256 8S8 119.04 8 256c0 136.96 111.04 248 248 248s248-111.04 248-248zm8 0c0 141.384-114.616 256-256 256S0 397.384 0 256C0 114.616 114.616 0 256 0s256 114.616 256 256z"/><path d="M56.184 392h399.633c-4.552-97.376-91.688-176-199.816-176S60.737 294.624 56.185 392zm-8 0C52.72 289.672 144.024 208 256 208c111.968 0 203.28 81.672 207.824 184 .12 2.656.176 5.32.176 8H48c0-2.68.056-5.344.176-8z"/><path d="M56.184 119.999h399.633c-4.552 97.376-91.688 176-199.816 176s-195.264-78.632-199.816-176zm-8 0c4.536 102.328 95.84 184 207.816 184 111.968 0 203.28-81.672 207.824-184 .12-2.656.176-5.32.176-8H48c0 2.68.056 5.344.176 8z"/><path d="M392 56v400H120V56h272zm-280-8v416h288V48H112z"/></svg>