<svg xmlns="http://www.w3.org/2000/svg" viewBox="0 0 512 512"><path d="M256 504C119.04 504 8 392.96 8 256S119.04 8 256 8c136.96 0 248 111.04 248 248S392.96 504 256 504zm0 8c141.384 0 256-114.616 256-256S397.384 0 256 0C114.616 0 0 114.616 0 256s114.616 256 256 256z"/><path d="M64.176 111.999h383.648c-4.368 97.632-88.288 176-191.824 176s-187.456-78.368-191.824-176zm-8 0c4.36 102.328 92.16 184 199.825 184s195.464-81.672 199.832-184c.112-2.656.168-5.32.168-8h-400c0 2.68.056 5.344.168 8z"/><path d="M24.16 192h463.68C483.328 307.12 381.76 400 256 400S28.672 307.12 24.16 192zm-8.008 0C20.664 312 126.32 408 256 408s235.336-96 239.848-216c.104-2.656.152-5.32.152-8H16c0 2.68.048 5.344.152 8z"/></svg>