<svg width="64" height="64" viewBox="0 0 64 64" fill="none" xmlns="http://www.w3.org/2000/svg">
<path fill-rule="evenodd" clip-rule="evenodd" d="M63 32C63 49.1208 49.1208 63 32 63C14.8792 63 1 49.1208 1 32C1 14.8792 14.8792 0.999999 32 0.999999C49.1208 0.999998 63 14.8792 63 32ZM64 32C64 49.6731 49.6731 64 32 64C14.3269 64 2.17128e-06 49.6731 1.39876e-06 32C6.26248e-07 14.3269 14.3269 -6.26248e-07 32 -1.39876e-06C49.6731 -2.17128e-06 64 14.3269 64 32Z" fill="#1B1B1B"/>
<path fill-rule="evenodd" clip-rule="evenodd" d="M53.1127 11L11.1127 11L11.1127 53H53.1127V11ZM10.1127 10L10.1127 54H54.1127V10L10.1127 10Z" fill="#1B1B1B"/>
<path fill-rule="evenodd" clip-rule="evenodd" d="M60.9804 22C60.4159 36.3896 47.7198 48 32 48C16.2802 48 3.58406 36.3896 3.01959 22L60.9804 22ZM61.9812 22C61.417 37.0008 48.2099 49 32 49C15.7901 49 2.58295 37.0008 2.01878 22C2.0063 21.6681 2 21.3347 2 21L62 21C62 21.3347 61.9937 21.6681 61.9812 22Z" fill="#1B1B1B"/>
</svg>
