<svg xmlns="http://www.w3.org/2000/svg" viewBox="0 0 512 512"><path d="M504 256C504 119.04 392.96 8 256 8S8 119.04 8 256c0 136.96 111.04 248 248 248s248-111.04 248-248zm8 0c0 141.384-114.616 256-256 256S0 397.384 0 256C0 114.616 114.616 0 256 0s256 114.616 256 256z"/><path d="M256 18.416L493.6 256 256 493.584 18.416 256 256 18.416zM7.096 256L256 504.896 504.912 256 256 7.104 7.096 256z"/><path d="M256 396.688L115.312 256 256 115.312 396.688 256 256 396.688zM408 256L256 104 104 256l152 152 152-152z"/><path d="M256 300.688L211.312 256 256 211.312 300.688 256 256 300.688zM312 256l-56-56-56 56 56 56 56-56z"/></svg>