<svg width="64" height="64" viewBox="0 0 64 64" fill="none" xmlns="http://www.w3.org/2000/svg">
<path fill-rule="evenodd" clip-rule="evenodd" d="M63 32C63 49.1208 49.1208 63 32 63C14.8792 63 1 49.1208 1 32C1 14.8792 14.8792 0.999999 32 0.999999C49.1208 0.999998 63 14.8792 63 32ZM64 32C64 49.6731 49.6731 64 32 64C14.3269 64 2.17128e-06 49.6731 1.39876e-06 32C6.26248e-07 14.3269 14.3269 -6.26248e-07 32 -1.39876e-06C49.6731 -2.17128e-06 64 14.3269 64 32Z" fill="#1B1B1B"/>
<path fill-rule="evenodd" clip-rule="evenodd" d="M32.0004 2.30187L2.30156 32L32.0004 61.6981L61.6992 32L32.0004 2.30187ZM0.887329 32L32.0004 63.1123L63.1135 32L32.0004 0.887669L0.887329 32Z" fill="#1B1B1B"/>
<path fill-rule="evenodd" clip-rule="evenodd" d="M32 49.5858L49.5858 32L32 14.4142L14.4143 32L32 49.5858ZM51 32L32 13L13.0001 32L32 51L51 32Z" fill="#1B1B1B"/>
<path fill-rule="evenodd" clip-rule="evenodd" d="M31.9999 37.5858L37.5858 32L31.9999 26.4142L26.4141 32L31.9999 37.5858ZM39 32L31.9999 25L24.9999 32L31.9999 39L39 32Z" fill="#1B1B1B"/>
</svg>
