<svg width="196" height="29" viewBox="0 0 196 29" fill="none" xmlns="http://www.w3.org/2000/svg">
<path d="M109.724 17.5093C110.174 17.2808 110.6 17.0028 111.01 16.711C111.872 16.0957 112.679 15.365 113.287 14.4925C113.618 14.0197 113.889 13.5016 114.054 12.9458C114.129 12.69 114.184 12.4263 114.279 12.1756C114.302 12.1156 114.297 12.1075 114.356 12.0936C114.823 11.9723 115.273 11.7829 115.648 11.4702C116.122 11.0748 116.492 10.4028 116.368 9.76988C116.324 9.53655 116.19 9.31825 115.959 9.23351C115.744 9.15547 115.536 9.23417 115.358 9.35992C115.007 9.61257 114.748 10.0063 114.536 10.3785C114.522 10.4044 114.506 10.432 114.492 10.4579C114.656 9.7674 114.431 9.02039 114.197 8.35074C113.186 5.46772 110.144 5.5127 111.402 8.44812C111.448 8.55638 111.506 8.66325 111.555 8.76995C111.994 9.73611 112.379 10.8157 112.373 11.8886C112.371 12.205 112.312 12.5018 112.232 12.8067C112.153 13.1095 112.068 13.4106 111.966 13.705C111.914 13.8597 111.856 14.0132 111.783 14.16C111.763 14.1982 111.73 14.2874 111.69 14.3086C111.688 14.3102 111.681 14.3175 111.678 14.3212C111.792 13.7998 111.815 13.2127 111.662 12.6974C111.549 12.318 111.311 11.9872 110.932 11.84C110.586 11.7062 110.097 11.6368 109.814 11.9329C109.664 12.0912 109.529 12.4657 109.761 12.8541C109.955 13.1799 110.149 13.5077 110.311 13.85C110.486 14.2187 110.654 14.6173 110.693 15.0269C110.736 15.4719 110.485 15.8631 110.224 16.204C109.978 16.5258 109.693 16.8213 109.385 17.0854C109.367 17.1011 109.349 17.1168 109.329 17.132C109.463 17.2615 109.592 17.3851 109.724 17.5093Z" fill="url(#paint0_radial_1914_2359)"/>
<path d="M104.355 17.9928C103.875 17.8369 103.41 17.6278 102.961 17.4024C102.011 16.9267 101.101 16.3293 100.362 15.561C99.9621 15.1435 99.6124 14.6734 99.3611 14.1521C99.245 13.9111 99.15 13.6598 99.0183 13.426C98.9855 13.3693 98.9899 13.3614 98.9294 13.3566C98.4486 13.3076 97.9727 13.1892 97.5546 12.9403C97.0246 12.6226 96.554 12.0152 96.5757 11.3708C96.5844 11.1336 96.6799 10.8968 96.8966 10.7792C97.0971 10.671 97.3144 10.7132 97.5094 10.8134C97.8962 11.0083 98.2141 11.3581 98.4808 11.6942C98.4997 11.7175 98.518 11.7429 98.5369 11.7663C98.2669 11.1099 98.3711 10.3371 98.4987 9.63896C99.0452 6.63492 102.058 6.21253 101.275 9.30389C101.247 9.4194 101.205 9.53148 101.174 9.64642C100.891 10.6679 100.681 11.7934 100.855 12.8528C100.906 13.1653 101.013 13.4494 101.139 13.7387C101.263 14.0253 101.395 14.3114 101.543 14.5861C101.619 14.7296 101.699 14.8743 101.796 15.0075C101.821 15.0416 101.867 15.1248 101.911 15.141C101.915 15.1422 101.921 15.1481 101.924 15.1514C101.73 14.6546 101.615 14.0763 101.685 13.545C101.737 13.153 101.921 12.7895 102.271 12.5865C102.59 12.4007 103.064 12.256 103.39 12.5076C103.562 12.6405 103.754 12.9908 103.587 13.4092C103.447 13.7617 103.307 14.1142 103.2 14.478C103.084 14.869 102.981 15.2884 103.005 15.6989C103.032 16.1463 103.341 16.4938 103.652 16.7916C103.945 17.0731 104.275 17.3189 104.62 17.5323C104.64 17.5444 104.662 17.5571 104.681 17.5692C104.573 17.709 104.464 17.8509 104.355 17.9928Z" fill="url(#paint1_radial_1914_2359)"/>
<path d="M13 27.975L20.7 10.35H23.55L31.25 27.975H28L26.225 23.75H17.95L16.15 27.975H13ZM19.075 21.025H25.1L22.075 14.025L19.075 21.025Z" fill="#1B1B1B"/>
<path d="M33.901 27.975V14.775H36.926V17.75C37.8593 15.5 39.4176 14.425 41.601 14.525V17.725H41.426C40.0593 17.725 38.9676 18.175 38.151 19.075C37.3343 19.9583 36.926 21.25 36.926 22.95V27.975H33.901Z" fill="#1B1B1B"/>
<path d="M48.6531 28.2C46.1198 28.2 44.8531 26.9083 44.8531 24.325V17.375H43.1781V14.775H44.8531V11.15H47.8781V14.775H51.4281V17.375H47.8781V23.85C47.8781 24.95 48.4198 25.5 49.5031 25.5C50.1531 25.5 50.7781 25.35 51.3781 25.05V27.525C50.5781 27.975 49.6698 28.2 48.6531 28.2Z" fill="#1B1B1B"/>
<path d="M64.9031 28.4C62.3698 28.4 61.1031 27.1083 61.1031 24.525V17.575H59.4281V14.975H61.1031V11.35H64.1281V14.975H67.6781V17.575H64.1281V24.05C64.1281 25.15 64.6698 25.7 65.7531 25.7C66.4031 25.7 67.0281 25.55 67.6281 25.25V27.725C66.8281 28.175 65.9198 28.4 64.9031 28.4Z" fill="#1B1B1B"/>
<path d="M70.782 12.95V10.075H74.032V12.95H70.782ZM70.907 28.175V14.975H73.932V28.175H70.907Z" fill="#1B1B1B"/>
<path d="M77.8853 28.175V14.975H80.9103V16.975C82.0103 15.4583 83.352 14.7 84.9353 14.7C86.7687 14.7 88.077 15.475 88.8603 17.025C90.0437 15.475 91.5353 14.7 93.3353 14.7C94.7853 14.7 95.9187 15.1417 96.7353 16.025C97.552 16.9083 97.9603 18.15 97.9603 19.75V28.175H94.9353V20.675C94.9353 19.625 94.702 18.825 94.2353 18.275C93.7687 17.725 93.1103 17.45 92.2603 17.45C91.4103 17.45 90.727 17.7417 90.2103 18.325C89.6937 18.8917 89.4353 19.6917 89.4353 20.725V28.175H86.4103V20.65C86.4103 19.6333 86.177 18.85 85.7103 18.3C85.2437 17.7333 84.5853 17.45 83.7353 17.45C82.8853 17.45 82.202 17.75 81.6853 18.35C81.1687 18.9333 80.9103 19.7333 80.9103 20.75V28.175H77.8853Z" fill="#1B1B1B"/>
<path d="M107.69 28.475C105.757 28.475 104.14 27.8333 102.84 26.55C101.557 25.2667 100.915 23.6083 100.915 21.575C100.915 19.6583 101.524 18.0333 102.74 16.7C103.957 15.3667 105.499 14.7 107.365 14.7C109.365 14.7 110.915 15.3833 112.015 16.75C113.132 18.1 113.69 19.7833 113.69 21.8C113.69 22.1667 113.674 22.45 113.64 22.65H103.94C104.107 23.7 104.532 24.525 105.215 25.125C105.899 25.7083 106.74 26 107.74 26C109.04 26 110.232 25.475 111.315 24.425L113.09 26C111.724 27.65 109.924 28.475 107.69 28.475ZM103.915 20.65H110.69C110.59 19.6333 110.249 18.8 109.665 18.15C109.082 17.5 108.307 17.175 107.34 17.175C106.424 17.175 105.657 17.5 105.04 18.15C104.424 18.7833 104.049 19.6167 103.915 20.65Z" fill="#1B1B1B"/>
<path d="M136.69 19.6913V18.8587C132.85 18.7317 129.757 15.6485 129.617 11.8103C129.617 11.7962 129.617 11.7891 129.617 11.775H128.764C128.764 11.7891 128.764 11.7962 128.764 11.8103C128.616 15.6414 125.544 18.7176 121.725 18.8587C121.711 18.8587 121.704 18.8587 121.69 18.8587V19.6913C121.704 19.6913 121.711 19.6913 121.725 19.6913C125.551 19.8324 128.623 22.9156 128.764 26.7397C128.764 26.7538 128.764 26.7609 128.764 26.775H129.617C129.617 26.7609 129.617 26.7538 129.617 26.7397C129.757 22.9015 132.85 19.8183 136.69 19.6913Z" fill="#5D5FEF"/>
<path d="M148.965 28.35L144.69 15.05H147.79L150.44 24.1L153.365 15H155.94L158.89 24.1L161.59 15.05H164.615L160.29 28.35H157.59L154.64 19.325L151.665 28.35H148.965Z" fill="#1B1B1B"/>
<path d="M172.739 28.55C170.805 28.55 169.189 27.9083 167.889 26.625C166.605 25.3417 165.964 23.6833 165.964 21.65C165.964 19.7333 166.572 18.1083 167.789 16.775C169.005 15.4417 170.547 14.775 172.414 14.775C174.414 14.775 175.964 15.4583 177.064 16.825C178.18 18.175 178.739 19.8583 178.739 21.875C178.739 22.2417 178.722 22.525 178.689 22.725H168.989C169.155 23.775 169.58 24.6 170.264 25.2C170.947 25.7833 171.789 26.075 172.789 26.075C174.089 26.075 175.28 25.55 176.364 24.5L178.139 26.075C176.772 27.725 174.972 28.55 172.739 28.55ZM168.964 20.725H175.739C175.639 19.7083 175.297 18.875 174.714 18.225C174.13 17.575 173.355 17.25 172.389 17.25C171.472 17.25 170.705 17.575 170.089 18.225C169.472 18.8583 169.097 19.6917 168.964 20.725Z" fill="#1B1B1B"/>
<path d="M189.277 28.525C187.46 28.525 185.968 27.75 184.802 26.2V28.25H181.777V10H184.802V17.25C185.968 15.6 187.46 14.775 189.277 14.775C190.943 14.775 192.385 15.4 193.602 16.65C194.818 17.8833 195.427 19.5583 195.427 21.675C195.427 23.7583 194.818 25.425 193.602 26.675C192.385 27.9083 190.943 28.525 189.277 28.525ZM188.577 25.9C189.643 25.9 190.535 25.5083 191.252 24.725C191.985 23.9417 192.352 22.9083 192.352 21.625C192.352 20.375 191.985 19.3583 191.252 18.575C190.518 17.7917 189.627 17.4 188.577 17.4C187.527 17.4 186.618 17.8 185.852 18.6C185.102 19.4 184.727 20.425 184.727 21.675C184.727 22.9083 185.102 23.925 185.852 24.725C186.618 25.5083 187.527 25.9 188.577 25.9Z" fill="#1B1B1B"/>
<g clip-path="url(#clip0_1914_2359)">
<path fill-rule="evenodd" clip-rule="evenodd" d="M24.2512 9.78498C24.2512 9.78498 22.9318 6.9781 19.4197 5.06801C15.9795 3.17799 13.0442 3.51902 9.84381 6.0436C3.98581 10.6768 6.85522 23.5408 8.88037 23.397L11.1306 23.2258C11.1306 23.2258 10.1958 18.7203 11.1147 17.7385C12.0274 16.7809 24.2512 9.78498 24.2512 9.78498Z" fill="#B5292A"/>
<path opacity="0.2" fill-rule="evenodd" clip-rule="evenodd" d="M10.8665 21.6555C10.6985 20.4604 10.6062 18.7704 10.9236 18.0334L11.2387 18.4053L13.2773 14.4595C11.7479 18.0702 9.4617 13.0323 9.14624 12.312C9.16013 12.0579 9.16901 12.0733 9.01612 12.4692C8.50802 13.8495 9.67266 21.709 9.67266 21.709C9.67266 21.709 10.1974 21.7137 10.8665 21.6555Z" fill="#181714"/>
<path opacity="0.2" fill-rule="evenodd" clip-rule="evenodd" d="M10.2664 16.8952C10.0131 16.2826 9.60036 14.9417 9.60036 14.9417C9.60036 14.9417 9.99155 18.3665 10.1923 19.5836C10.3843 20.7854 10.6758 21.499 10.6758 21.499L10.8495 21.5218C10.7055 20.3334 10.6213 18.7617 10.9174 18.0575L11.2059 18.3832L10.8197 17.8883C10.8259 17.8642 10.5518 17.6328 10.2664 16.8952Z" fill="#181714"/>
<path fill-rule="evenodd" clip-rule="evenodd" d="M11.4449 19.7014C11.4449 19.7014 12.7396 21.8047 13.4458 22.4019C14.1369 23.0079 14.7902 22.2615 15.701 21.1614C16.6118 20.0613 19.2258 16.9729 21.5362 15.9671C23.8529 14.9372 26.4205 14.0291 26.8989 13.8144C28.3491 13.1617 24.9493 8.66411 24.0956 8.54171C19.7279 7.96649 12.9907 11.8767 11.1259 15.8452C10.346 17.485 10.8773 18.6139 11.4449 19.7014Z" fill="white"/>
<path d="M11.1442 25.8227C12.3501 25.1265 12.763 23.5842 12.0665 22.3778C11.3701 21.1715 9.82792 20.758 8.62204 21.4542C7.41616 22.1504 7.0032 23.6927 7.69967 24.8991C8.39615 26.1054 9.93831 26.5189 11.1442 25.8227Z" fill="white"/>
<path opacity="0.2" fill-rule="evenodd" clip-rule="evenodd" d="M11.2572 21.5325C11.5765 21.7378 11.8623 22.0241 12.0665 22.3778C12.7592 23.5776 12.3488 25.1272 11.1442 25.8227C9.93951 26.5182 8.40124 26.1142 7.69966 24.8991C7.6819 24.8683 7.65525 24.8221 7.63749 24.7914C8.40741 25.2903 9.42944 25.3565 10.2727 24.8697C11.4384 24.1762 11.8631 22.7209 11.2572 21.5325Z" fill="#181714"/>
<path opacity="0.2" fill-rule="evenodd" clip-rule="evenodd" d="M27.0405 13.7121C27.0707 13.6947 27.0768 13.6706 27.107 13.6532C27.122 13.6445 27.1282 13.6204 27.1432 13.6118C27.1494 13.5877 27.1795 13.5703 27.1857 13.5462C27.1919 13.5221 27.207 13.5134 27.2131 13.4894C27.2193 13.4653 27.2255 13.4412 27.2317 13.4171C27.2378 13.3931 27.244 13.369 27.2351 13.3536C27.2413 13.3295 27.2475 13.3055 27.2448 13.266C27.251 13.2419 27.2421 13.2265 27.2483 13.2025C27.2544 13.1784 27.2517 13.1389 27.2429 13.1235C27.249 13.0995 27.2313 13.0687 27.2374 13.0446C27.2347 13.0052 27.2259 12.9898 27.2232 12.9503C27.2205 12.9109 27.2116 12.8955 27.2089 12.856C27.2062 12.8166 27.1973 12.8012 27.1946 12.7617C27.1919 12.7223 27.183 12.7069 27.1803 12.6674C27.1625 12.6367 27.1598 12.5972 27.151 12.5818C27.1332 12.5511 27.1305 12.5116 27.1127 12.4809C27.095 12.4501 27.0923 12.4106 27.0745 12.3799C27.0567 12.3491 27.054 12.3096 27.0363 12.2789C27.0185 12.2481 27.0158 12.2087 26.998 12.1779C26.9803 12.1471 26.9687 12.0923 26.9509 12.0615C26.9332 12.0308 26.9154 12 26.9127 11.9605C26.8949 11.9298 26.8683 11.8836 26.8656 11.8442C26.8478 11.8134 26.8301 11.7826 26.8123 11.7519C26.7857 11.7057 26.7679 11.675 26.7413 11.6288C26.7235 11.5981 26.7057 11.5673 26.688 11.5365C26.6613 11.4904 26.6436 11.4596 26.6169 11.4135C26.5992 11.3827 26.5814 11.3519 26.5637 11.3212C26.537 11.275 26.5104 11.2289 26.4837 11.1827L26.4748 11.1674C26.4652 12.0548 26.2772 12.7376 25.0563 13.1964C23.8354 13.6552 20.5056 14.6342 18.2539 16.6111C16.011 18.6033 15.1716 19.3751 13.231 19.8392C12.7534 19.9509 12.0043 19.8706 11.5132 19.785C11.7236 20.1147 12.6186 21.5258 13.2523 22.206C13.3357 22.2809 13.3951 22.3491 13.4368 22.3865C13.4457 22.4019 13.4697 22.4086 13.4697 22.4086C14.1608 23.0145 14.8141 22.2682 15.7249 21.1681C16.6357 20.068 19.2496 16.9796 21.5601 15.9738C23.8768 14.9439 26.4444 14.0357 26.9228 13.8211C26.968 13.795 26.9981 13.7776 27.0432 13.7515C27.0104 13.7295 27.0255 13.7208 27.0405 13.7121Z" fill="#181714"/>
<path opacity="0.2" fill-rule="evenodd" clip-rule="evenodd" d="M26.4683 13.2426C25.4154 14.0966 21.8296 15.2234 20.252 16.0727C18.6744 16.9221 16.6743 18.9177 15.289 20.5174C14.294 21.6456 13.4284 21.9198 13.0171 21.9726C13.1627 22.1552 13.3145 22.3137 13.4307 22.4106C14.1218 23.0166 14.7751 22.2702 15.6859 21.1701C16.5967 20.07 19.2107 16.9816 21.5211 15.9758C23.8378 14.9459 26.4054 14.0378 26.8838 13.8231C27.263 13.6452 27.3112 13.2072 27.1537 12.6213C26.9934 12.7959 26.773 13.0052 26.4683 13.2426Z" fill="#181714"/>
</g>
<defs>
<radialGradient id="paint0_radial_1914_2359" cx="0" cy="0" r="1" gradientUnits="userSpaceOnUse" gradientTransform="translate(109.215 10.422) rotate(0.833119) scale(7.57421 7.55859)">
<stop offset="0.0868964" stop-color="#804B2B"/>
<stop offset="0.3451" stop-color="#724022"/>
<stop offset="0.8286" stop-color="#4E230A"/>
<stop offset="1" stop-color="#401800"/>
</radialGradient>
<radialGradient id="paint1_radial_1914_2359" cx="0" cy="0" r="1" gradientUnits="userSpaceOnUse" gradientTransform="translate(103.746 10.914) rotate(170.318) scale(7.57232 7.56076)">
<stop offset="0.0868964" stop-color="#804B2B"/>
<stop offset="0.3451" stop-color="#724022"/>
<stop offset="0.8286" stop-color="#4E230A"/>
<stop offset="1" stop-color="#401800"/>
</radialGradient>
<clipPath id="clip0_1914_2359">
<rect width="23.1256" height="17.9037" fill="white" transform="translate(0 11.5628) rotate(-30)"/>
</clipPath>
</defs>
</svg>
