<svg xmlns="http://www.w3.org/2000/svg" viewBox="0 0 1024 1024"><path d="M734.99.022a289.043 289.043 0 0 0-204.371 84.622L391.263 224.001c-20.523 20.523-20.523 53.797 0 74.32s53.797 20.523 74.32 0l139.35-139.35a183.932 183.932 0 0 1 260.112 260.127L725.703 558.442c-20.522 20.522-20.522 53.797 0 74.319s53.797 20.522 74.319 0L939.38 493.404a289.029 289.029 0 0 0 84.619-204.37 289.014 289.014 0 0 0-84.656-204.355A289.037 289.037 0 0 0 734.989.022zm-18.619 307.576c20.522 20.523 20.522 53.797 0 74.32L381.932 716.356c-20.523 20.527-53.797 20.527-74.32 0-20.523-20.522-20.523-53.792 0-74.319l334.44-334.438c20.522-20.523 53.797-20.523 74.319 0zm-418.073 83.645c20.523 20.523 20.523 53.797 0 74.32L158.955 604.907a183.932 183.932 0 0 0 260.119 260.117l139.344-139.342c20.522-20.522 53.797-20.522 74.319 0s20.522 53.797 0 74.319L493.386 939.354a289.045 289.045 0 0 1-408.731-.032 289.037 289.037 0 0 1-.035-408.725l139.357-139.356c20.523-20.523 53.797-20.523 74.32 0z"/></svg>