<!-- Generated by IcoMoon.io -->
<svg version="1.1" xmlns="http://www.w3.org/2000/svg" width="1024" height="1024" viewBox="0 0 1024 1024">
<title></title>
<g id="icomoon-ignore">
</g>
<path d="M809.268 122.291c-20.728-8.582-42.942-12.997-65.375-12.992s-44.647 4.431-65.369 13.023c-20.722 8.592-39.548 21.182-55.402 37.053l-101.454 101.453c-21.34 21.341-55.941 21.341-77.283 0s-21.341-55.942 0-77.284l101.415-101.416c0.005-0.006-0.005 0.006 0 0 26.001-26.018 56.888-46.679 90.862-60.767 33.985-14.091 70.413-21.348 107.202-21.356 36.794-0.009 73.223 7.231 107.213 21.306 33.997 14.075 64.878 34.71 90.895 60.724 26.012 26.014 46.647 56.9 60.724 90.891 14.072 33.991 21.313 70.423 21.302 107.213-0.005 36.79-7.262 73.218-21.356 107.203-14.088 33.977-34.729 64.846-60.746 90.844-0.005 0.006 0.005-0.006 0 0l-144.904 144.906c-26.007 26.007-56.883 46.636-90.862 60.713-33.98 14.072-70.397 21.318-107.181 21.318-36.778 0-73.195-7.246-107.176-21.318-33.98-14.077-64.855-34.707-90.861-60.713-21.341-21.34-21.341-55.942 0-77.283s55.942-21.34 77.284 0c15.858 15.858 34.684 28.438 55.401 37.018 20.722 8.586 42.931 13 65.353 13 22.427 0 44.636-4.416 65.353-13 20.722-8.579 39.548-21.16 55.402-37.018l144.909-144.906c15.869-15.855 28.477-34.699 37.068-55.423 8.596-20.722 13.017-42.935 13.023-65.367s-4.405-44.648-12.989-65.374c-8.579-20.727-21.165-39.559-37.029-55.421-15.858-15.863-34.691-28.445-55.418-37.027zM425.049 428.172c-22.426 0-44.633 4.418-65.353 12.999s-39.545 21.161-55.403 37.020l-144.906 144.906c-15.87 15.853-28.479 34.701-37.071 55.424s-13.016 42.931-13.022 65.364c-0.005 22.439 4.409 44.653 12.992 65.375 8.582 20.728 21.164 39.56 37.027 55.424s34.695 28.445 55.421 37.024c20.727 8.586 42.94 13 65.374 12.995s44.645-4.432 65.367-13.023c20.722-8.591 39.549-21.181 55.404-37.052l101.453-101.454c21.341-21.346 55.943-21.346 77.284 0 21.34 21.34 21.34 55.942 0 77.283l-101.416 101.415c-0.006 0.005 0.006-0.005 0 0-25.998 26.017-56.886 46.68-90.863 60.768-33.984 14.088-70.412 21.346-107.203 21.356-36.79 0.005-73.221-7.235-107.213-21.307-33.991-14.077-64.877-34.712-90.891-60.724s-46.649-56.899-60.724-90.89c-14.075-33.99-21.315-70.424-21.306-107.213s7.265-73.217 21.356-107.202c14.088-33.98 34.73-64.85 60.749-90.846 0.006-0.005-0.006 0.005 0 0l144.906-144.907c26.007-26.007 56.882-46.636 90.861-60.711s70.398-21.319 107.178-21.319c36.779 0 73.198 7.245 107.177 21.319s64.856 34.704 90.862 60.711c21.34 21.341 21.34 55.942 0 77.284s-55.942 21.341-77.283 0c-15.858-15.858-34.685-28.437-55.404-37.020s-42.926-12.999-65.352-12.999z"></path>
</svg>
