<svg xmlns="http://www.w3.org/2000/svg" fill="none" viewBox="0 0 190 24"><path fill="#1B1B1B" d="M.75 19l7.7-17.625h2.85L19 19h-3.25l-1.775-4.225H5.7L3.9 19H.75zm6.075-6.95h6.025l-3.025-7-3 7zM21.651 19V5.8h3.025v2.975c.933-2.25 2.492-3.325 4.675-3.225v3.2h-.175c-1.367 0-2.458.45-3.275 1.35-.817.883-1.225 2.175-1.225 3.875V19h-3.025zm14.752.225c-2.533 0-3.8-1.292-3.8-3.875V8.4h-1.675V5.8h1.675V2.175h3.025V5.8h3.55v2.6h-3.55v6.475c0 1.1.542 1.65 1.625 1.65.65 0 1.275-.15 1.875-.45v2.475c-.8.45-1.708.675-2.725.675zM55.325 19.225c-2.533 0-3.8-1.292-3.8-3.875V8.4H49.85V5.8h1.675V2.175h3.025V5.8h3.55v2.6h-3.55v6.475c0 1.1.542 1.65 1.625 1.65.65 0 1.275-.15 1.875-.45v2.475c-.8.45-1.708.675-2.725.675zm5.879-15.45V.9h3.25v2.875h-3.25zM61.329 19V5.8h3.025V19h-3.025zm6.978 0V5.8h3.025v2c1.1-1.517 2.442-2.275 4.025-2.275 1.834 0 3.142.775 3.925 2.325 1.184-1.55 2.675-2.325 4.475-2.325 1.45 0 2.584.442 3.4 1.325.817.883 1.225 2.125 1.225 3.725V19h-3.025v-7.5c0-1.05-.233-1.85-.7-2.4-.466-.55-1.125-.825-1.975-.825-.85 0-1.533.292-2.05.875-.516.567-.775 1.367-.775 2.4V19h-3.025v-7.525c0-1.017-.233-1.8-.7-2.35-.466-.567-1.125-.85-1.975-.85-.85 0-1.533.3-2.05.9-.516.583-.775 1.383-.775 2.4V19h-3.025zm29.805.3c-1.933 0-3.55-.642-4.85-1.925-1.283-1.283-1.925-2.942-1.925-4.975 0-1.917.608-3.542 1.825-4.875 1.217-1.333 2.758-2 4.625-2 2 0 3.55.683 4.65 2.05 1.117 1.35 1.675 3.033 1.675 5.05 0 .367-.017.65-.05.85h-9.7c.167 1.05.592 1.875 1.275 2.475.683.583 1.525.875 2.525.875 1.3 0 2.492-.525 3.575-1.575l1.775 1.575c-1.367 1.65-3.167 2.475-5.4 2.475zm-3.775-7.825h6.775c-.1-1.017-.442-1.85-1.025-2.5-.583-.65-1.358-.975-2.325-.975-.917 0-1.683.325-2.3.975-.617.633-.992 1.467-1.125 2.5z"/><path fill="#5D5FEF" d="M129 12.416v-.832a7.326 7.326 0 0 1-7.074-7.049V4.5h-.852v.035c-.148 3.831-3.22 6.908-7.039 7.049H114v.832h.035c3.826.141 6.898 3.225 7.039 7.049v.035h.852v-.035A7.326 7.326 0 0 1 129 12.416z"/><path fill="#1B1B1B" d="M142.075 19.1L137.8 5.8h3.1l2.65 9.05 2.925-9.1h2.575l2.95 9.1 2.7-9.05h3.025L153.4 19.1h-2.7l-2.95-9.025-2.975 9.025h-2.7zm23.773.2c-1.933 0-3.55-.642-4.85-1.925-1.283-1.283-1.925-2.942-1.925-4.975 0-1.917.609-3.542 1.825-4.875 1.217-1.333 2.759-2 4.625-2 2 0 3.55.683 4.65 2.05 1.117 1.35 1.675 3.033 1.675 5.05 0 .367-.016.65-.05.85h-9.7c.167 1.05.592 1.875 1.275 2.475.684.583 1.525.875 2.525.875 1.3 0 2.492-.525 3.575-1.575l1.775 1.575c-1.366 1.65-3.166 2.475-5.4 2.475zm-3.775-7.825h6.775c-.1-1.017-.441-1.85-1.025-2.5-.583-.65-1.358-.975-2.325-.975-.916 0-1.683.325-2.3.975-.616.633-.991 1.467-1.125 2.5zm20.313 7.8c-1.816 0-3.308-.775-4.475-2.325V19h-3.025V.75h3.025V8c1.167-1.65 2.659-2.475 4.475-2.475 1.667 0 3.109.625 4.325 1.875 1.217 1.233 1.825 2.908 1.825 5.025 0 2.083-.608 3.75-1.825 5-1.216 1.233-2.658 1.85-4.325 1.85zm-.7-2.625c1.067 0 1.959-.392 2.675-1.175.734-.783 1.1-1.817 1.1-3.1 0-1.25-.366-2.267-1.1-3.05-.733-.783-1.625-1.175-2.675-1.175-1.05 0-1.958.4-2.725 1.2-.75.8-1.125 1.825-1.125 3.075 0 1.233.375 2.25 1.125 3.05.767.783 1.675 1.175 2.725 1.175z"/></svg>