<!-- Generated by IcoMoon.io -->
<svg version="1.1" xmlns="http://www.w3.org/2000/svg" width="4054" height="512" viewBox="0 0 4054 512">
<title></title>
<g id="icomoon-ignore">
</g>
<path fill="#000" d="M16 405.334l164.267-376h60.8l164.267 376h-69.334l-37.866-90.133h-176.534l-38.4 90.134h-67.2zM145.6 257.067h128.534l-64.534-149.333-64 149.333zM461.888 405.334v-281.6h64.533v63.466c19.904-48 53.163-70.933 99.734-68.8v68.266h-3.734c-29.163 0-52.438 9.6-69.866 28.8-17.429 18.838-26.134 46.4-26.134 82.666v107.2h-64.534zM776.597 410.134c-54.038 0-81.067-27.563-81.067-82.666v-148.267h-35.734v-55.466h35.734v-77.334h64.534v77.334h75.734v55.466h-75.734v138.134c0 23.466 11.563 35.2 34.667 35.2 13.866 0 27.2-3.2 40-9.6v52.8c-17.067 9.6-36.438 14.4-58.134 14.4zM1180.266 410.134c-54.037 0-81.066-27.563-81.066-82.666v-148.267h-35.734v-55.466h35.734v-77.334h64.534v77.334h75.734v55.466h-75.734v138.134c0 23.466 11.563 35.2 34.667 35.2 13.867 0 27.2-3.2 40-9.6v52.8c-17.066 9.6-36.438 14.4-58.133 14.4zM1305.686 80.534v-61.334h69.333v61.334h-69.333zM1308.352 405.334v-281.6h64.534v281.6h-64.534zM1457.216 405.334v-281.6h64.534v42.666c23.466-32.363 52.096-48.534 85.867-48.534 39.126 0 67.030 16.534 83.734 49.6 25.258-33.066 57.066-49.6 95.466-49.6 30.934 0 55.126 9.43 72.534 28.267 17.429 18.838 26.133 45.334 26.133 79.466v179.733h-64.534v-160c0-22.4-4.97-39.466-14.934-51.2-9.941-11.733-24-17.6-42.133-17.6s-32.704 6.23-43.734 18.667c-11.008 12.096-16.534 29.162-16.534 51.2v158.933h-64.534v-160.534c0-21.696-4.97-38.4-14.934-50.133-9.941-12.096-24-18.133-42.133-18.133s-32.704 6.4-43.734 19.2c-11.008 12.438-16.534 29.504-16.534 51.2v158.4h-64.534zM2093.056 411.733c-41.238 0-75.734-13.696-103.466-41.067-27.37-27.37-41.066-62.762-41.066-106.133 0-40.896 12.97-75.563 38.934-104s58.838-42.666 98.666-42.666c42.666 0 75.733 14.57 99.2 43.734 23.829 28.8 35.733 64.704 35.733 107.733 0 7.829-0.363 13.866-1.066 18.134h-206.934c3.563 22.4 12.63 40 27.2 52.8 14.571 12.438 32.533 18.666 53.866 18.666 27.733 0 53.162-11.2 76.267-33.6l37.867 33.6c-29.162 35.2-67.563 52.8-115.2 52.8zM2012.523 244.8h144.534c-2.133-21.696-9.43-39.466-21.867-53.334s-28.97-20.8-49.6-20.8c-19.563 0-35.904 6.934-49.066 20.8-13.162 13.504-21.162 31.296-24 53.334z"></path>
<path fill="#5d5fef" d="M2752 264.875v-17.75c-81.99-2.851-147.763-68.44-150.903-150.087l-0.009-0.292v-0.746h-18.176v0.746c-3.157 81.728-68.693 147.37-150.166 150.379h-0.747v17.75h0.747c81.622 3.008 147.157 68.8 150.166 150.379v0.747h18.176v-0.747c3.149-81.939 68.923-147.527 150.646-150.371l0.267-0.007z"></path>
<path fill="#000" d="M3030.934 407.466l-91.2-283.733h66.133l56.534 193.066 62.4-194.133h54.934l62.934 194.133 57.6-193.066h64.534l-92.267 283.734h-57.6l-62.934-192.534-63.466 192.534h-57.6zM3538.090 411.733c-41.238 0-75.733-13.696-103.466-41.067-27.37-27.37-41.066-62.762-41.066-106.133 0-40.896 12.992-75.563 38.934-104 25.963-28.438 58.858-42.666 98.666-42.666 42.666 0 75.733 14.57 99.2 43.734 23.829 28.8 35.733 64.704 35.733 107.733 0 7.829-0.341 13.866-1.066 18.134h-206.934c3.563 22.4 12.63 40 27.2 52.8 14.592 12.438 32.534 18.666 53.867 18.666 27.733 0 53.162-11.2 76.267-33.6l37.867 33.6c-29.142 35.2-67.541 52.8-115.2 52.8zM3457.557 244.8h144.534c-2.133-21.696-9.408-39.466-21.867-53.334-12.438-13.867-28.97-20.8-49.6-20.8-19.541 0-35.904 6.934-49.066 20.8-13.142 13.504-21.142 31.296-24 53.334zM3890.901 411.2c-38.742 0-70.57-16.534-95.466-49.6v43.733h-64.534v-389.334h64.534v154.667c24.896-35.2 56.726-52.8 95.466-52.8 35.563 0 66.325 13.334 92.267 40 25.963 26.304 38.934 62.037 38.934 107.2 0 44.438-12.97 80-38.934 106.666-25.941 26.304-56.704 39.466-92.267 39.466zM3875.968 355.2c22.762 0 41.792-8.363 57.066-25.067 15.659-16.704 23.466-38.762 23.466-66.133 0-26.666-7.808-48.363-23.466-65.067-15.637-16.704-34.666-25.066-57.066-25.066s-41.771 8.534-58.133 25.6c-16 17.066-24 38.934-24 65.6 0 26.304 8 48 24 65.067 16.363 16.704 35.733 25.067 58.133 25.067z"></path>
</svg>
