<svg width="833" height="288" viewBox="0 0 833 288" fill="none" xmlns="http://www.w3.org/2000/svg">
<path fill-rule="evenodd" clip-rule="evenodd" d="M153.834 223.864V288H202.111V223.864H243.025V182.604H202.111V0H159.152L0 187.915L9.41004 223.864H153.834ZM153.834 182.604H59.7333L153.834 69.4468V182.604ZM742.835 223.864V288H791.112V223.864H832.026V182.604H791.112V0H748.154L589.001 187.915L598.411 223.864H742.835ZM742.835 182.604H648.734L742.835 69.4468V182.604ZM425.466 287.323C428.169 213.702 487.44 154.548 561.063 152C557.061 225.098 498.54 283.677 425.466 287.771V287.323ZM409.098 287.323V287.771C336.021 283.677 277.499 225.094 273.5 151.992H273.958C347.413 154.702 406.392 213.9 409.098 287.323ZM425.466 0.228666C498.54 4.32289 557.061 62.9018 561.063 136C487.44 133.452 428.169 74.2979 425.466 0.677332V0.228666ZM417.282 0L417.314 3.43818e-06H417.25L417.282 0ZM273.5 136.008C277.499 62.9057 336.021 4.32303 409.098 0.228666V0.677332C406.257 74.2352 347.277 133.298 273.958 136.008H273.5Z" fill="#1B1B1B"/>
</svg>
