<svg width="549" height="584" viewBox="0 0 549 584" fill="none" xmlns="http://www.w3.org/2000/svg">
<path d="M409.567 305.561C365.53 305.019 326.421 283.226 301.885 249.941C284.849 226.847 274.777 198.332 274.777 167.323C274.777 164.721 274.884 162.228 274.991 159.734C275.42 152.795 276.277 145.964 277.563 139.351C286.027 135.881 351.172 110.944 371.745 144.555C394.138 181.31 322.886 242.893 409.567 305.561Z" stroke="#1B1B1B" stroke-miterlimit="10"/>
<path d="M473.534 290.491C432.818 252.11 371.745 274.661 411.389 167.324C449.747 63.5637 317.1 94.6808 301.028 85.8986C316.242 64.7563 337.243 48.1677 361.673 38.5182C377.102 32.4465 393.817 29.0854 411.389 29.0854C425.961 29.0854 439.997 31.3623 453.176 35.6992C462.069 38.6266 470.534 42.3129 478.463 46.8667C481.141 48.3846 483.713 50.0109 486.177 51.6372C523.464 76.3575 548.001 118.967 548.001 167.324C548.001 201.476 535.786 232.702 515.535 256.772C513.285 259.482 510.928 261.976 508.571 264.47C498.392 274.987 486.606 283.66 473.534 290.491Z" stroke="#1B1B1B" stroke-miterlimit="10"/>
<path d="M411.388 305.561C410.745 305.561 410.209 305.561 409.567 305.561C322.885 242.893 394.137 181.309 371.744 144.555C351.172 110.944 286.026 135.881 277.562 139.242C281.633 119.618 289.777 101.511 301.027 85.8984C317.099 94.6806 449.747 63.5636 411.388 167.323C371.744 274.66 432.817 252 473.533 290.49C454.89 300.14 433.782 305.561 411.388 305.561Z" fill="#1B1B1B"/>
<path d="M301.885 249.941C284.848 226.847 274.777 198.332 274.777 167.323C274.777 164.721 274.884 162.227 274.991 159.734C279.17 157.999 336.607 143.5 344.501 179.5C352.395 215.5 284.527 214.487 301.885 249.941Z" fill="#1B1B1B"/>
<path d="M432.001 196C441.001 177 474.501 186 468.001 133.5C461.501 81.0001 478.463 46.8667 478.463 46.8667C481.141 48.3846 483.713 50.0109 486.177 51.6373C523.464 76.3575 548.001 118.967 548.001 167.323C548.001 201.476 535.786 232.702 515.536 256.771C516.001 238 513.854 184.904 486.177 208C458.501 231.097 423.001 215 432.001 196Z" fill="#1B1B1B"/>
<path d="M361.673 38.5181C377.102 32.4465 393.817 29.0854 411.389 29.0854C425.961 29.0854 439.997 31.3623 453.176 35.6992C453.176 35.6992 433.798 47.6232 447.501 82.5001C461.204 117.377 375.28 87.5248 361.673 38.5181Z" fill="#1B1B1B"/>
<path d="M137.688 582.518C213.137 582.518 274.3 520.627 274.3 444.28C274.3 367.934 213.137 306.042 137.688 306.042C62.2395 306.042 1.07617 367.934 1.07617 444.28C1.07617 520.627 62.2395 582.518 137.688 582.518Z" stroke="#1B1B1B" stroke-miterlimit="10"/>
<path d="M0.612305 582.518C76.0611 582.518 137.224 520.627 137.224 444.28C137.224 367.934 76.0611 306.042 0.612305 306.042" stroke="#1B1B1B" stroke-miterlimit="10"/>
<path d="M137.212 305.561C183.743 305.561 221.464 267.391 221.464 220.306C221.464 173.222 183.743 135.052 137.212 135.052C90.6809 135.052 52.96 173.222 52.96 220.306C52.96 267.391 90.6809 305.561 137.212 305.561Z" stroke="#1B1B1B" stroke-miterlimit="10"/>
<path d="M137.212 167.805C108.557 167.805 85.3281 191.311 85.3281 220.307H189.096C189.096 191.311 165.867 167.805 137.212 167.805Z" fill="#1B1B1B" stroke="#1B1B1B" stroke-miterlimit="10"/>
<path d="M137.212 272.501C108.557 272.501 85.3281 248.996 85.3281 220H189.096C189.096 248.996 165.867 272.501 137.212 272.501Z" stroke="#1B1B1B" stroke-miterlimit="10"/>
<path d="M273.348 583C348.797 583 409.961 521.109 409.961 444.762C409.961 368.416 348.797 306.524 273.348 306.524C197.9 306.524 136.736 368.416 136.736 444.762C136.736 521.109 197.9 583 273.348 583Z" stroke="#1B1B1B" stroke-miterlimit="10"/>
<path d="M273.348 530.017C319.879 530.017 357.6 491.847 357.6 444.762C357.6 397.677 319.879 359.507 273.348 359.507C226.817 359.507 189.096 397.677 189.096 444.762C189.096 491.847 226.817 530.017 273.348 530.017Z" stroke="#1B1B1B" stroke-miterlimit="10"/>
<path d="M273.348 497.264C302.003 497.264 325.232 473.758 325.232 444.762C325.232 415.766 302.003 392.261 273.348 392.261C244.693 392.261 221.464 415.766 221.464 444.762C221.464 473.758 244.693 497.264 273.348 497.264Z" stroke="#1B1B1B" stroke-miterlimit="10"/>
<path d="M410.912 582.518C486.361 582.518 547.524 520.627 547.524 444.28C547.524 367.934 486.361 306.042 410.912 306.042C335.463 306.042 274.3 367.934 274.3 444.28C274.3 520.627 335.463 582.518 410.912 582.518Z" stroke="#1B1B1B" stroke-miterlimit="10"/>
<path d="M410.912 582.518C335.418 582.518 274.3 520.672 274.3 444.28V167.805C274.3 91.4127 335.418 29.5669 410.912 29.5669C486.406 29.5669 547.524 91.4127 547.524 167.805V444.28C547.524 520.672 486.406 582.518 410.912 582.518Z" stroke="#1B1B1B" stroke-miterlimit="10"/>
<path d="M341.892 325.117C301.242 349.104 273.824 393.706 273.824 444.762C273.824 393.513 246.216 348.718 205.28 324.828C225.367 313.171 248.596 306.524 273.348 306.524H273.824C298.672 306.621 321.9 313.364 341.892 325.117Z" fill="#1B1B1B"/>
<path d="M341.892 564.408C321.71 576.257 298.291 583 273.348 583C248.596 583 225.367 576.353 205.28 564.697C246.216 540.806 273.824 496.108 273.824 444.762C273.824 495.819 301.242 540.421 341.892 564.408Z" fill="#1B1B1B"/>
<path d="M165.493 39.7409C120.163 41.3435 61.2961 72.0262 66.8309 95.9562C73.9191 126.602 160.414 79.3526 165.493 39.7409Z" fill="#1B1B1B"/>
<path d="M231.936 63.251C225.441 68.6736 170.15 95.9818 179.822 112.677C189.493 129.372 240.195 83.7802 205.615 51.0501C196.445 42.371 181.85 39.1626 165.493 39.7409M41.5354 10.7193C86.1444 0.156488 159.34 -8.30955 165.449 32.4098C165.809 34.8095 165.811 37.2602 165.493 39.7409M165.493 39.7409C120.163 41.3435 61.2961 72.0262 66.8309 95.9562C73.9191 126.602 160.414 79.3526 165.493 39.7409Z" stroke="#1B1B1B"/>
<line x1="137" y1="305.5" x2="548" y2="305.5" stroke="#1B1B1B"/>
<line x1="137" y1="582.5" x2="548" y2="582.5" stroke="#1B1B1B"/>
<path d="M324.139 133.142C321.826 131.792 323.192 120.705 323.097 118.288C322.786 110.186 321.271 102.314 315.969 96.0214C313.264 92.7806 312.101 89.2698 310.559 85.5564C308.665 80.8167 305.906 76.6712 304.648 71.6345C301.551 59.225 310.343 49.0571 314.373 38.1194C318.269 27.5059 330.496 23.2658 340.532 19.9305C348.945 17.1489 357.358 14.4347 364.432 8.92536C371.195 3.72661 377.795 1.6201 385.599 5.87363C390.685 8.6553 394.31 11.2749 400.478 10.0596C404.833 9.20893 408.81 7.10242 412.813 5.21197C423.039 0.3778 434.454 -1.98527 445.167 2.06571C452.795 4.9284 460.532 7.46701 468.16 10.2892C474.531 12.5983 484.594 14.6102 488.598 20.5787C490.626 23.6034 491.776 27.965 493.521 31.2463C495.607 35.4721 498.865 39.0108 502.908 41.4412C507.669 44.2659 512.031 47.7127 515.879 51.6902C524.725 61.318 525.076 74.2812 522.845 86.5286C521.425 94.347 517.962 100.167 514.202 107.027C510.753 113.346 512.538 117.951 512.849 124.581C513.066 129.28 514.269 134.681 513.498 139.299C513.296 140.501 512.673 142 511.456 142C511.065 141.97 510.691 141.827 510.38 141.587C510.07 141.347 509.837 141.021 509.711 140.65C509.479 139.908 509.387 139.129 509.441 138.354C509.427 134.252 508.891 130.168 507.845 126.201C506.736 121.948 505.64 120.584 502.069 118.288C493.399 112.752 499.675 99.1001 497.7 90.9307C497.268 89.0942 496.348 87.0012 494.427 86.7717C493.823 86.7405 493.222 86.8704 492.684 87.1481C492.147 87.4257 491.694 87.8411 491.37 88.3515C490.748 89.3879 490.33 90.5339 490.14 91.7274C489.014 96.8895 488.398 102.149 488.3 107.432C488.3 109.147 489.734 120.813 486.055 116.492C485.333 115.416 484.891 114.177 484.77 112.887C484.434 110.544 484.361 108.171 484.553 105.811C484.783 98.695 486.961 91.7139 485.825 84.5706C484.689 77.4274 480.415 73.66 475.004 69.5415C471.177 66.6518 468.16 62.4253 465.293 58.6039C462.425 54.7824 460.572 49.3271 454.675 49.7997C453.554 49.9117 452.469 50.2524 451.485 50.8007C450.501 51.3489 449.641 52.093 448.958 52.9869C448.274 53.8808 447.782 54.9053 447.511 55.9969C447.241 57.0886 447.198 58.2241 447.385 59.333C447.76 60.7551 447.704 62.2566 447.222 63.6464C446.74 65.0362 445.855 66.2516 444.68 67.1379C442.096 64.1807 444.463 61.9932 443.016 58.2123C441.907 55.2956 442.664 45.3302 437.416 46.0593C436.716 46.1935 436.056 46.4876 435.488 46.9186C434.92 47.3496 434.46 47.9059 434.143 48.5439C431.627 53.0945 431.113 59.3465 430.18 64.4103C430.072 64.9909 428.476 72.9173 427.678 71.783C424.838 67.7321 424.824 63.3975 424.838 58.6444C424.838 55.8357 425.135 54.3773 423.106 52.4734C419.251 48.868 414.017 47.5042 410.067 43.8043C407.816 41.619 404.845 40.3262 401.709 40.1671C398.573 40.0081 395.487 40.9937 393.025 42.9401C386.614 47.5582 382.705 53.8912 382.489 61.6556C382.407 64.5993 382.705 67.5565 382.61 70.5002C382.61 70.8243 382.719 74.3622 381.704 73.3224C378.228 69.7576 378.431 65.8956 378.647 61.1695C378.783 58.1988 379.121 52.4194 374.874 54.5124C368.733 57.5506 370.748 65.396 369.463 70.7163C368.584 74.5242 366.258 77.846 365.243 81.6809C364.417 84.7633 364.008 87.9423 364.026 91.1332C364.026 94.185 365.04 97.2097 364.554 100.261C364.427 101.509 363.911 102.685 363.079 103.624C361.01 105.447 359.698 94.9141 359.576 93.7799C358.9 87.4198 360.82 79.0748 354.531 75.0238C348.728 71.2699 344.914 84.5706 344.657 88.5271C344.279 94.0769 344.955 101.301 340.207 105.285C336.934 103.462 338.706 93.8879 333.756 95.2112C332.984 95.5072 332.28 95.9549 331.685 96.5279C331.09 97.1008 330.617 97.7873 330.293 98.5465C328.251 102.589 327.182 107.05 327.168 111.577C327.02 117.086 327.818 122.636 328.088 128.105C328.399 130.779 328.697 135.856 324.139 133.142Z" fill="#83BBE0"/>
<path d="M323.172 94.6737C323.047 94.6236 322.925 94.5652 322.807 94.4989C321.346 93.6115 320.643 91.7022 319.114 90.6534C317.328 89.4433 315.205 88.6097 313.703 87.0634C310.551 83.8365 309.293 79.3994 307.602 75.3523C305.79 70.9825 304.491 67.8228 305.194 62.9151C306.466 54.0813 312.134 46.6997 315.178 38.471C319.019 28.0372 331.086 23.8556 340.988 20.6017C349.294 17.9126 357.586 15.2235 364.566 9.84524C371.181 4.73591 377.742 2.66528 385.453 6.84687C390.458 9.53599 394.043 12.1176 400.13 10.8806C404.418 10.0604 408.341 7.9763 412.305 6.1208C422.396 1.3745 433.61 -0.951591 444.229 3.02831C451.751 5.85189 459.38 8.40656 466.942 11.0957C473.219 13.368 483.175 15.3445 487.098 21.2068C489.1 24.1783 490.236 28.454 491.954 31.6944C494.018 35.8357 497.228 39.306 501.207 41.6979C505.895 44.4758 510.189 47.8626 513.977 51.7687C522.702 61.1806 523.067 73.9674 520.862 86.0012C520.6 87.8688 520.123 89.7004 519.442 91.4602C519.05 92.3745 518.224 92.9526 517.792 93.7863C517.223 94.8619 517.156 96.1661 516.588 97.2687C514.599 101.114 507.768 98.3309 507.321 103.857C507.254 104.758 507.457 105.686 507.321 106.546C506.848 109.329 504.832 107.514 503.885 106.076C501.724 102.717 500.436 98.8778 500.138 94.9022C499.93 92.9279 500.021 90.9336 500.409 88.9862C500.815 87.2651 501.762 85.7458 501.951 83.9575C502.14 82.1692 501.126 79.144 498.894 78.8885C496.337 78.5927 494.836 82.0348 491.927 81.1877C487.869 80.0448 486.746 72.6228 484.514 69.5303C482.813 67.1874 480.723 65.1503 478.332 63.5067C475.978 61.8932 473.178 61.1672 470.865 59.5537C468.968 58.3199 467.44 56.6015 466.441 54.5788C465.413 52.32 465.413 49.8191 463.736 47.856C460.584 44.0912 454.564 41.9937 449.843 43.6879C449.094 44.0274 448.309 44.2844 447.503 44.4543C445.095 44.7635 445.623 43.1097 444.798 41.7651C443.769 39.9634 440.401 39.076 438.534 39.1836C435.396 39.3046 433.786 41.8727 432.433 44.3064C430.567 47.7484 429.065 48.8644 425.061 47.8695C419.772 46.5249 415.849 42.6794 411.141 40.192C405.886 37.3957 400.054 35.8362 394.097 35.6339C392.413 35.5329 390.725 35.7193 389.105 36.1852C385.777 37.2878 384.979 40.2189 383.058 42.7467C381.908 44.266 380.529 47.493 378.215 47.1703C376.863 46.982 375.956 45.8257 374.82 45.2072C374.152 44.8203 373.41 44.5752 372.642 44.4872C371.874 44.3993 371.095 44.4705 370.356 44.6963C366.704 45.8526 365.933 50.3838 365.689 53.6914C365.473 56.4881 365.838 61.5974 363.741 63.8294C362.848 64.784 361.726 64.5555 360.684 65.174C359.074 66.1958 358.344 68.1992 356.815 69.4497C354.285 71.5069 351.404 68.495 348.225 67.89C337.62 65.8866 341.258 80.4213 337.836 85.9878C336.483 88.1391 335.266 90.4383 332.763 90.7072C329.53 91.0568 328.583 92.9661 325.837 94.351C325.439 94.5842 324.997 94.7333 324.539 94.7888C324.08 94.8443 323.615 94.8051 323.172 94.6737V94.6737Z" fill="#D2EEF9"/>
<path d="M324.237 82.5004C322.898 82.4652 321.565 82.3112 320.253 82.0402C317.448 81.4989 313.302 81.553 310.998 79.5771C307.136 76.2478 305.47 67.6675 306.147 62.9307C307.421 54.0932 313.058 46.6903 316.08 38.489C319.914 28.0681 331.906 23.8862 341.757 20.6245C350.022 17.9178 358.274 15.2111 365.212 9.79763C371.784 4.68191 378.329 2.62479 385.984 6.80669C390.971 9.51342 394.534 12.0713 400.578 10.8668C404.86 10.0548 408.708 7.97058 412.692 6.11647C422.719 1.36616 433.87 -0.948089 444.439 3.0308C451.919 5.8458 459.521 8.44426 467.027 11.151C473.274 13.4246 483.165 15.4006 487.081 21.2606C489.073 24.2245 490.198 28.5147 491.919 31.7357C493.96 35.8831 497.154 39.3554 501.119 41.737C505.792 44.5159 510.075 47.9018 513.856 51.8061C516.749 54.9677 518.906 58.7299 520.171 62.8224C520.715 64.6804 521.065 66.5899 521.214 68.5201C521.39 70.1983 522.244 72.0659 521.932 73.7441C521.702 75.0163 520.984 76.2072 520.699 77.4794C520.382 79.2683 519.707 80.9751 518.716 82.498C517.724 84.021 516.435 85.329 514.927 86.3439C513.572 87.4537 510.984 89.2131 509.507 86.7635C508.856 85.6808 509.507 83.4477 509.29 82.2026C508.893 80.045 508.089 77.9826 506.919 76.126C504.209 72.2013 500.144 69.9006 495.808 67.8705C490.252 65.2991 481.661 64.0269 478.775 58.1263C475.754 51.9549 477.502 46.0543 471.133 41.8859C466.58 38.8814 461.296 37.8258 457.231 34.0229C455.171 32.0469 453.504 29.6379 451.54 27.635C446.485 22.411 434.29 25.0636 428.003 26.3222C421.716 27.5808 415.022 33.8605 408.491 31.1131C405.686 29.9222 404.128 27.432 400.93 27.053C397.813 26.9581 394.723 27.6517 391.946 29.0695C389.358 30.2199 386.675 32.0469 383.735 31.5056C382.095 31.2079 380.876 30.3552 379.236 30.1522C376.021 29.8392 372.789 30.5641 370.016 32.2205C367.243 33.8768 365.075 36.3774 363.83 39.3551C362.556 42.6032 361.459 46.0407 360.497 49.3971C359.724 52.0226 359.142 54.3639 357.014 56.1639C354.209 58.4511 349.9 58.8706 346.54 60.1157C343.169 61.278 339.976 62.9042 337.055 64.9472C332.787 68.1141 332.448 73.284 331.039 78.1019C329.955 81.5395 327.245 82.5139 324.237 82.5004Z" fill="white"/>
<path d="M163.552 171.102C158.552 169.102 154.552 168.242 151.402 163.512C149.892 161.242 148.822 159.022 146.402 157.452C143.982 155.882 140.982 155.302 138.332 154.532C134.042 153.282 129.332 154.422 125.232 156.032C122.765 157.045 120.372 158.231 118.072 159.582C116.012 160.752 113.812 161.682 112.272 163.582C110.272 165.982 109.522 168.952 107.002 170.892C105.534 171.846 104.241 173.047 103.182 174.442C102.279 176.083 101.879 177.954 102.032 179.822C102.082 181.822 102.732 182.632 104.252 183.942C106.402 185.802 109.172 186.782 111.792 187.752C114.412 188.722 117.082 189.562 119.792 190.332C120.912 190.652 121.882 191.232 123.012 191.492C124.242 191.726 125.49 191.857 126.742 191.882C127.836 191.988 128.906 192.268 129.912 192.712C131.044 193.039 132.129 193.509 133.142 194.112C134.094 194.898 134.773 195.966 135.082 197.162C135.687 198.497 136.375 199.792 137.142 201.042C138.046 202.775 138.767 204.598 139.292 206.482C139.556 207.645 139.743 208.824 139.852 210.012C139.862 210.278 139.935 210.539 140.066 210.772C140.196 211.005 140.38 211.203 140.602 211.352C140.597 210.782 140.738 210.221 141.012 209.722C141.279 208.946 141.447 208.139 141.512 207.322C141.466 205.844 141.624 204.366 141.982 202.932C142.452 201.562 143.322 200.382 143.832 199.022C144.502 197.222 144.702 194.662 146.062 193.222C148.112 194.372 146.662 199.812 146.812 201.632C146.848 203.378 147.124 205.11 147.632 206.782C147.99 208.175 148.075 209.625 147.882 211.052C147.991 212.289 148.182 213.519 148.452 214.732C148.622 216.152 148.042 217.612 147.842 219.002C147.69 220.644 147.734 222.299 147.972 223.932C147.989 224.691 148.093 225.446 148.282 226.182C148.442 226.662 149.012 227.602 149.382 226.652C149.542 226.232 149.192 225.452 149.052 225.062C148.831 224.47 148.737 223.839 148.775 223.208C148.813 222.578 148.982 221.963 149.272 221.402C149.777 219.993 150.041 218.508 150.052 217.012C150.16 215.562 150.367 214.122 150.672 212.702C151.302 209.702 151.392 206.702 152.472 203.702C152.942 202.422 153.612 201.252 154.032 199.992C154.712 197.992 154.912 196.322 156.582 194.802C158.012 193.492 159.722 192.512 160.662 190.742C161.602 188.972 161.782 186.912 162.572 185.032C163.072 183.832 164.082 182.712 164.662 181.472C166.352 177.802 168.252 172.982 163.552 171.102Z" fill="#83BBE0"/>
<path d="M163.432 171.471C162.052 170.849 160.636 170.312 159.192 169.861C156.009 168.728 153.258 166.631 151.322 163.861C149.822 161.581 148.762 159.361 146.322 157.791C143.882 156.221 140.932 155.641 138.322 154.871C134.052 153.621 129.322 154.761 125.322 156.371C122.863 157.383 120.481 158.569 118.192 159.921C116.132 161.091 113.942 162.021 112.422 163.921C110.422 166.321 109.682 169.291 107.182 171.231C105.712 172.181 104.422 173.383 103.372 174.781C101.972 177.021 101.222 181.071 104.372 182.091C105.882 182.581 107.512 182.611 109.032 183.091C109.966 183.518 110.856 184.034 111.692 184.631C115.562 186.631 120.112 184.071 124.102 183.981C126.031 184.028 127.949 184.286 129.822 184.751C131.68 185.152 133.402 186.027 134.822 187.291C136.542 188.621 137.642 189.491 138.402 191.501C138.802 192.561 139.102 194.031 139.962 194.831C141.182 195.961 141.162 194.371 141.692 193.451C141.952 192.845 142.335 192.299 142.817 191.848C143.299 191.397 143.869 191.051 144.492 190.831C146.822 190.111 149.122 190.231 149.892 192.941C150.168 194.34 150.285 195.766 150.242 197.191C150.242 198.091 150.132 199.341 150.772 200.051C152.772 199.651 153.342 197.621 153.522 195.911C153.872 192.631 156.202 192.081 158.112 189.861C159.652 188.071 159.362 184.701 161.202 183.271C162.092 182.591 162.972 182.371 163.682 181.371C164.276 180.458 164.753 179.474 165.102 178.441C165.531 177.44 165.798 176.377 165.892 175.291C165.917 174.48 165.696 173.681 165.257 172.998C164.817 172.316 164.181 171.783 163.432 171.471Z" fill="#D2EEF9"/>
<path d="M163.432 171.882C162.049 171.268 160.633 170.731 159.192 170.272C156.007 169.142 153.255 167.044 151.322 164.272C149.822 162.002 148.762 159.782 146.322 158.212C143.882 156.642 140.932 156.052 138.322 155.282C134.052 154.032 129.322 155.182 125.322 156.782C122.865 157.797 120.483 158.984 118.192 160.332C116.132 161.502 113.942 162.432 112.422 164.332C110.902 166.232 110.192 168.162 108.852 169.932C107.512 171.702 105.642 172.102 104.142 173.612C102.812 174.952 104.332 177.252 105.522 178.272C106.957 179.538 108.728 180.361 110.622 180.642C112.242 180.862 113.832 180.782 115.442 181.082C117.039 181.34 118.672 181.293 120.252 180.942C123.532 180.312 126.582 178.002 130.032 178.252C131.569 178.237 133.078 178.671 134.372 179.502C135.912 180.752 136.652 182.722 138.282 183.862C140.172 185.192 142.782 185.252 144.982 184.862C147.182 184.472 147.672 185.862 149.332 187.032C150.642 187.952 152.412 187.372 153.512 186.402C154.842 185.222 154.792 183.182 156.512 182.402C158.782 181.402 161.322 182.012 163.312 180.232C165.832 177.982 166.872 173.762 163.432 171.882Z" fill="white"/>
</svg>
