<svg xmlns="http://www.w3.org/2000/svg" fill="none" viewBox="0 0 1530 250"><path stroke="#1B1B1B" d="M165.56 1H.52v164.962h165.04V1zM495.642 1c-45.36.311-82.001 37.142-82.001 82.481 0 45.339 36.641 82.17 82.001 82.481h-165.04V1h165.04z"/><path stroke="#1B1B1B" d="M495.641 32.125v102.712c-28.13-.311-50.862-23.136-50.862-51.356 0-28.22 22.732-51.045 50.862-51.356zM1446.44 1v83h-82v81.962h-83.04V1h165.04zM826.761 11.894v154.068h-41.519a41.062 41.062 0 0 0 32.593-16.807c4.982-6.744 7.888-15.148 7.888-24.174 0-22.514-18.061-40.67-40.481-40.981 0 5.395.519 10.582 1.557 15.666 13.078 1.038 23.354 12.035 23.354 25.315 0 4.98-1.453 9.545-3.944 13.488-4.359 7.055-12.144 11.723-21.071 11.931h-.519c-14.013 0-25.431-11.413-25.431-25.419s11.418-25.418 25.431-25.418h.519V84h-.415c-22.629 0-41.001 18.364-41.001 40.981 0 22.618 18.372 40.981 41.001 40.981H661.721v-31.125c28.129-.311 50.861-23.136 50.861-51.356 0-28.22-22.732-51.045-50.861-51.356V1h123.521v82.481c0-30.606 16.711-57.373 41.519-71.587z"/><path stroke="#1B1B1B" d="M950.283 1v164.962H785.242c13.391-.207 25.224-6.743 32.593-16.807 4.983-6.744 7.889-15.148 7.889-24.174 0-22.514-18.061-40.67-40.482-40.981 0 5.395.519 10.582 1.557 15.666 13.079 1.038 23.355 12.035 23.355 25.315 0 4.98-1.453 9.545-3.944 13.488-4.36 7.055-12.145 11.723-21.071 11.931V83.481c0-30.606 16.711-57.373 41.519-71.587V1h123.625zM578.681 1v164.962h-165.04v-82.48c0 45.338 36.641 82.169 82.001 82.48v-31.125c-28.13-.311-50.862-23.136-50.862-51.356 0-28.22 22.732-51.045 50.862-51.356V1c-45.36.311-82.001 37.142-82.001 82.481V1h165.04zM1529.48 1v164.962h-83.04V84h-82V1h165.04zM950.283 1h165.037v164.962H950.283V1z"/><path fill="#1B1B1B" stroke="#1B1B1B" d="M1281.4 1v164.962h-166.08V1h83.46c-45.47 0-82.32 36.831-82.32 82.274 0 45.442 36.85 82.273 82.32 82.273 45.46 0 82.31-36.831 82.31-82.273C1281.09 37.83 1244.24 1 1198.78 1h82.62z"/><path stroke="#1B1B1B" d="M1198.78 165.548c45.46 0 82.31-36.836 82.31-82.274 0-45.439-36.85-82.274-82.31-82.274s-82.32 36.835-82.32 82.274c0 45.438 36.86 82.274 82.32 82.274zM330.601 84h-83.039c-.311 45.131-36.849 81.651-82.001 81.963v83h165.04V195M743.723 124.981V84h41c-22.628 0-41 18.364-41 40.981zM785.241 84c0 5.395.623 10.582 1.557 15.666 13.079 1.038 23.355 12.035 23.355 25.315 0 4.98-1.453 9.545-3.945 13.488-4.359 7.055-12.144 11.723-21.071 11.931h-.519c-14.013 0-25.43-11.413-25.43-25.419s11.417-25.418 25.43-25.418h.519V84h.104z"/><path stroke="#1B1B1B" d="M908.763 222.246v26.717h-165.04V124.981c0 22.618 18.372 40.982 41 40.982h.519c13.39-.208 25.224-6.744 32.593-16.808 4.983-6.744 7.889-15.147 7.889-24.174 0-22.514-18.061-40.67-40.482-40.981h123.521v81.963M1529.48 84v164.963h-165.04v-83h82V84h83.04z"/><path fill="#1B1B1B" stroke="#1B1B1B" d="M247.562 84c-.311 45.131-36.849 81.651-82.001 81.962V84h82.001z"/><path stroke="#1B1B1B" d="M247.562 83.481V84h-82.001v81.962h-.519c-45.568 0-82.52-36.935-82.52-82.48C82.522 37.934 119.474 1 165.041 1h.519c45.36.311 82.001 37.142 82.001 82.481zM810.154 124.981c0 4.98-1.453 9.545-3.945 13.488-9.653-10.79-16.504-24.07-19.41-38.803 13.079 1.038 23.355 12.035 23.355 25.315z"/><path stroke="#1B1B1B" d="M950.283 83.481c0 30.606-16.712 57.374-41.52 71.588-12.041 6.951-26.053 10.893-41 10.893-14.948 0-28.96-3.942-41.001-10.893-3.114-1.764-6.124-3.735-8.927-5.914 4.983-6.744 7.889-15.148 7.889-24.174 0-22.514-18.061-40.67-40.482-40.981v-.519c0-30.606 16.712-57.373 41.52-71.587C838.803 4.942 852.815 1 867.763 1c45.567 0 82.52 36.935 82.52 82.481z"/><path fill="#1B1B1B" stroke="#1B1B1B" d="M330.601 1v83H248.6v-.519c0-45.338 36.641-82.17 82.001-82.481z"/><path stroke="#1B1B1B" d="M413.64 83.481c0 45.546-36.952 82.481-82.52 82.481h-.519c-45.153-.311-81.69-36.831-82.001-81.962h82.001V1h.519c45.568 0 82.52 36.935 82.52 82.481zM661.721 1h-.519c-45.568 0-82.52 36.935-82.52 82.481 0 45.546 36.952 82.481 82.52 82.481h.519c45.36-.311 82.001-37.142 82.001-82.48 0-45.34-36.641-82.17-82.001-82.482zm0 133.837V32.125c28.13.311 50.862 23.136 50.862 51.356 0 28.22-22.732 51.045-50.862 51.356zM1198.78 165.548c45.46 0 82.31-36.836 82.31-82.274 0-45.439-36.85-82.274-82.31-82.274s-82.32 36.835-82.32 82.274c0 45.438 36.86 82.274 82.32 82.274z"/><path fill="#1B1B1B" stroke="#1B1B1B" d="M444.78 83.481c0 28.22 22.732 51.045 50.862 51.356v31.125c-45.36-.311-82.001-37.142-82.001-82.48 0-45.34 36.641-82.17 82.001-82.482v31.125c-28.13.311-50.862 23.136-50.862 51.356z"/><path stroke="#1B1B1B" d="M578.68 83.481c0 45.546-36.952 82.481-82.52 82.481h-.519v-31.125c-28.13-.311-50.862-23.136-50.862-51.356 0-28.22 22.732-51.045 50.862-51.356V1h.519c45.568 0 82.52 36.935 82.52 82.481zM1529.48 83.481V84c-.31 45.339-37.16 81.962-82.52 81.962h-.52V84h-82v-.519c0-45.338 36.64-82.17 82-82.481h.52c45.57 0 82.52 36.935 82.52 82.481z"/><path stroke="#1B1B1B" d="M547.54 83.481c0 28.324-23.043 51.356-51.38 51.356h-.519c-28.13-.311-50.862-23.136-50.862-51.356 0-28.22 22.732-51.045 50.862-51.356h.519c28.337 0 51.38 23.032 51.38 51.356z"/><path fill="#1B1B1B" stroke="#1B1B1B" d="M712.582 83.481c0 28.22-22.732 51.045-50.861 51.356V32.125c28.129.311 50.861 23.136 50.861 51.356z"/><path stroke="#1B1B1B" d="M661.72 32.125v102.712h-.519c-28.337 0-51.381-23.032-51.381-51.356 0-28.323 23.044-51.356 51.381-51.356h.519zM1032.8 134.837c28.38 0 51.38-22.992 51.38-51.356 0-28.363-23-51.356-51.38-51.356-28.37 0-51.378 22.993-51.378 51.356 0 28.364 23.008 51.356 51.378 51.356zM1198.38 134.712c28.38 0 51.38-22.992 51.38-51.356 0-28.363-23-51.356-51.38-51.356C1170 32 1147 54.993 1147 83.356c0 28.364 23 51.356 51.38 51.356z"/><path fill="#1B1B1B" stroke="#1B1B1B" d="M817.835 149.155a41.062 41.062 0 0 1-32.593 16.807V150.4a25.626 25.626 0 0 0 21.071-11.931c3.426 3.942 7.37 7.47 11.522 10.686z"/><path stroke="#1B1B1B" d="M1406.5 249c-22.92 0-41.5-18.58-41.5-41.5s18.58-41.5 41.5-41.5M810.153 124.981c0 4.98-1.453 9.545-3.945 13.488-4.359 7.055-12.144 11.723-21.071 11.931h-.519c-14.013 0-25.43-11.413-25.43-25.419s11.417-25.418 25.43-25.418h.519c.519 0 1.038 0 1.557.103 13.183 1.038 23.459 12.035 23.459 25.315z"/><path fill="#1B1B1B" d="M1446 84h-82v82h82V84z"/><path fill="#1B1B1B" stroke="#1B1B1B" d="M868.001 1c-14.94 0-28.946 3.942-40.981 10.894-24.797 14.214-41.5 40.981-41.5 71.587V1h82.481zM1529 83.481V84h-30.75v-.519c0-28.323-22.76-51.356-50.74-51.356h-.51V1h.51c45 0 81.49 36.935 81.49 82.481z"/><path fill="#1B1B1B" d="M638.371 210.278c36.968-5.875 63.004-13.656 63.004-22.935 0-24.982-64.648.31-63.004 22.935z"/><path stroke="#1B1B1B" d="M165 209.472c59.316-1.764 309.35-32.544 312.966-22.129 3.616 10.416-86.04 13.865-86.04 26.261 0 12.396 156.899 10.904 246.445-3.326M1364.5 182.5c-4.71 8.98-196.39 70.198-207.69 52.428-11.31-17.77 61.62-29.078 50.11-41.812-11.51-12.734-184.92 54.89-236.147 54.89-29.273 0-36.605-19.415-35.856-31.327m0 0c25.871-6.659 40.822-14.704 35.856-23.563-7.532-13.436-34.613 3.8-35.856 23.563zm0 0c-73.166 18.834-233.675 26.587-277.993 10.352-12.792-4.686-18.107-10.621-18.553-16.753m0 0c36.968-5.875 63.004-13.656 63.004-22.935 0-24.982-64.648.31-63.004 22.935z"/><g clip-path="url(#clip0)"><path fill="#FDF7F2" stroke="#FDF7F2" stroke-miterlimit="10" d="M1447 93v22.717c-14.29 13.147-30.05-2.314-37.82 9.886-7.36 11.569 1.05 26.294-24.17 16.828-10.29-3.891-16.91 2.945-21.01 11.569v-23.769c3.78-3.365 8.62-4.838 14.71-2.524 25.21 9.465 11.94-10.638 19.29-22.207 8.93-13.988 33.24 13.793 49-12.5z"/></g><path fill="#1B1B1B" d="M1083 72.564c-1.36.83-35.56-10.712-33.5 12.436 2 22.5-5.24 19.407-23 12.5-19.74-8.593-11.89 8.225-13.87 19.21-1.46 8.186-8.55 8.29-9.7 8.29-7.921-5.492-14.073-13.057-17.93-21.866.417 0 16.5 3.366 13-8.134-3.433-11.281-6-23 11.5-16.5s33 6.5 28.77-18.164c-4.05-23.67 23.23 13.164 31.59-12.746 6.47 6.84 11.16 15.337 13.14 24.974zM480.877 92c5.694 6.695 2.948 16-10.429 11-17.626-5.536-10.948 16-10.948 16-4-4-9-11-12.5-21 0 0 1.546-11.53 11.975-11.53 8.344 0 13.559 7.451 11.473-4.259-2.295-12.668 1.307-15.106 10.429-12.211 9.123 2.895 14.102 2.524 14.623-16v34.5c-14.623-11.5-21-4-14.623 3.5zM165.481 25.614V49C162 89 139.5 53.5 132.5 59s.314 37.092-26.649 23.794c-17.422-8.592-22.815 9.002-22.815 9.002-.311-2.967-.518-6.036-.518-9.104 0-4.808.414-9.513 1.244-14.116.207-.614 9.008-20.134 18.238-13.076 9.333 7.16 17 20 18.5-8s27 9 32.5 4-3-25.886 12.481-25.886z"/><defs><clipPath id="clip0"><path fill="#fff" d="M0 0h83v64H0z" transform="translate(1364 92)"/></clipPath></defs></svg>