<svg width="242" height="75" viewBox="0 0 242 75" fill="none" xmlns="http://www.w3.org/2000/svg">
<path d="M238.045 51.1148C236.282 49.2989 234.861 47.3328 233.815 45.2648C232.726 42.6848 232.138 39.8848 230.088 37.5548C225.5 32.3448 215.364 30.2048 207.263 28.9848C196.281 27.3148 185.342 25.7748 174.431 23.9848C166.797 22.6224 159.359 20.7746 152.209 18.4648C146.044 16.5848 143.477 12.6248 139.147 9.46482C126.459 0.14482 103.305 -2.21519 86.4586 2.04481C85.5124 2.27481 84.5661 2.53482 83.5912 2.80482C78.8774 4.23598 74.3451 5.94202 70.0427 7.90481C66.0569 9.66481 61.7271 11.3248 58.8024 13.9048C55.5765 16.8148 53.598 21.2548 48.4796 23.0448C37.6551 26.8348 26.6872 27.4048 15.1459 29.5548C8.73719 30.7448 1.7837 34.3948 0.808776 39.2848C-0.123136 43.8348 -0.624931 48.7448 1.43961 53.2848C2.55791 55.7548 4.85186 57.4248 6.47195 59.6448C7.00242 60.3648 7.01674 63.6448 8.37877 63.8048C9.74079 63.9648 9.69778 59.6648 10.4433 59.0548C12.4935 57.3548 14.9738 58.7948 15.5617 60.4948C16.5079 63.2648 15.662 66.2248 17.0814 68.9348C17.8556 70.3948 18.9739 73.9348 20.9811 74.7148C28.1496 77.4048 34.8307 58.7148 36.7519 55.8048C39.5333 51.7348 44.1068 47.2648 50.2431 45.4448C52.8668 44.6648 57.8991 43.9948 59.1321 46.4448C60.0067 48.1948 59.6482 50.0348 59.7199 51.8448C59.8346 54.2648 60.6375 56.6748 60.5515 59.0648C60.5515 59.8248 60.0354 61.2648 60.9386 61.8848C62.659 63.0548 62.487 60.6748 62.6017 59.9748C62.8024 58.5548 63.892 57.2948 64.3508 55.9748C64.7283 54.5408 64.8487 53.0796 64.7093 51.6248C64.7093 49.7248 65.254 45.1248 69.5265 45.5648C72.3222 45.8448 73.2972 49.0748 73.6269 50.6348C74.057 52.5648 73.6269 54.6348 74.5158 56.5748C75.075 57.7448 76.3796 58.0548 76.8241 56.7748C77.2685 55.4948 76.523 53.7748 77.0535 52.2348C77.928 49.8248 80.5661 47.7448 84.3081 48.5148C87.6199 49.1848 90.0429 51.0748 93.2974 51.8648C96.9104 52.7548 100.753 52.2048 104.552 52.2248C107.037 52.2656 109.515 52.012 111.878 51.4748C115.549 50.6148 118.516 48.7248 121.355 46.9448C124.939 44.6948 127.09 43.5148 131.793 42.6748C134.588 42.1748 137.183 41.6748 139.807 42.7648C145.456 45.0548 148.108 49.7048 154.789 50.8748C157.347 51.3712 159.969 51.6861 162.617 51.8148C165.313 51.8848 168.352 51.0348 171.005 50.6748C178.947 49.6748 190.575 48.0948 195.894 53.5948C198.288 56.0548 198.862 59.1448 199.048 62.1248C199.206 64.6248 199.22 67.1248 199.722 69.6548C199.879 70.4648 200.353 71.1448 200.596 71.9148C200.84 72.6848 200.439 73.6248 200.596 74.4848C202.417 74.6748 202.03 72.1248 202.03 71.3448C202.343 69.94 202.764 68.548 203.292 67.1748C203.478 66.2348 203.392 65.2748 203.593 64.3348C203.865 63.0448 204.654 60.0348 207.464 60.8248C209.385 61.3548 209.586 63.1548 209.915 64.2848C210.245 65.4148 210.647 68.0048 213.098 67.5548C214.919 67.2148 213.93 65.6348 214.145 64.6448C214.325 64.0256 214.722 63.447 215.3 62.9603C215.877 62.4737 216.618 62.0939 217.457 61.8548C220.023 61.1348 218.704 63.2148 220.181 63.5648C221.658 63.9148 221.113 63.1048 221.529 62.7348C223.966 60.5348 225.83 62.1148 227.521 63.8248C229.083 65.0831 229.889 66.7127 229.772 68.3748C229.772 68.9848 229.471 73.4748 230.934 73.4448C231.765 73.4448 232.181 71.7848 232.367 71.3548C232.835 70.2051 233.641 69.1358 234.733 68.2148C236.081 67.1048 237.686 66.1548 238.948 65.0048C242.231 62.0048 241.701 57.1048 239.765 53.7748C239.28 52.8616 238.705 51.9728 238.045 51.1148Z" fill="#83BBE0"/>
<path d="M233.585 52.8252C233.141 50.5952 233.112 48.3952 232.811 46.0652C232.25 43.0446 230.662 40.1612 228.18 37.6552C226.235 35.1631 223.137 33.2035 219.392 32.0952C215.139 30.7731 210.699 29.7675 206.144 29.0952C195.305 27.4452 184.509 25.9252 173.742 24.1652C166.202 22.82 158.855 20.9958 151.792 18.7152C145.713 16.8652 143.19 12.9652 138.889 9.82521C126.358 0.635211 103.548 -1.70479 86.8738 2.49521C85.9275 2.73521 85.01 2.9852 84.0924 3.2552C79.4406 4.65757 74.9661 6.33012 70.7159 8.2552C66.7875 9.9952 62.5294 11.6352 59.6333 14.2552C56.4361 17.1252 54.5006 21.5052 49.4396 23.2552C38.7585 26.9952 27.934 27.5552 16.536 29.6752C10.2133 30.8552 3.34583 34.4552 2.3709 39.2852C1.92645 41.4652 1.06623 43.7752 0.937194 45.9552C0.80816 48.1352 2.61463 49.1652 4.29207 50.7852C5.12362 51.5852 5.19531 51.8652 6.44264 52.1052C9.06633 52.6052 12.1775 51.3852 14.6435 51.1052C20.9231 50.3252 26.3856 55.3452 32.4502 51.9852C34.2423 50.9852 35.5613 49.3652 37.081 48.1552C38.8927 46.8085 40.9067 45.6016 43.0883 44.5552C47.5471 42.1952 50.8733 42.1152 56.3644 41.8952C59.7767 41.7552 62.2426 40.4452 65.3108 39.5552C69.2248 38.4252 71.9632 39.9052 75.4901 40.8352C79.0171 41.7652 82.4579 42.2652 85.8702 43.1652C91.4966 44.571 97.4436 45.2487 103.419 45.1652C106.458 45.1652 109.311 45.1052 112.021 43.9052C114.889 42.5852 116.666 40.9052 120.15 40.2052C123.634 39.5052 126.846 39.3252 130.186 38.7852C133.527 38.2452 135.921 37.4452 139.276 37.8352C145.971 38.6052 150.989 42.4552 156.796 44.5652C161.929 46.4252 167.95 43.8552 173.226 43.4652C179.405 43.0052 185.785 44.8152 191.592 46.0852C196.782 47.2152 198.502 48.2752 201.8 51.1852C203.477 52.6652 205.814 53.5252 207.936 54.6452C209.227 55.3352 210.13 56.5352 211.392 57.1452C214.058 58.4052 217.614 56.7352 220.625 56.8552C224.023 56.9952 225.729 58.0552 228.223 59.4352C229.657 60.2252 231.005 61.6052 232.854 60.7152C235.263 59.5352 234.919 57.0252 234.288 55.3852C233.978 54.5429 233.743 53.6879 233.585 52.8252V52.8252Z" fill="#D2EEF9"/>
<path d="M228.424 47.6747C226.374 50.1347 223.879 51.3947 219.822 51.3247C215.387 51.1304 211.078 50.2197 207.234 48.6647C197.27 44.9447 186.546 37.6647 174.66 37.6647C170.445 37.6647 166.33 38.6647 162.115 38.7347C157.398 38.8247 153.369 36.8047 150.43 34.4047C148.72 32.919 146.593 31.6924 144.18 30.7999C141.766 29.9075 139.117 29.3681 136.394 29.2147C130.215 28.8347 124.079 30.0047 118.158 31.2947C106.415 33.8347 94.4297 35.7047 82.1284 34.6047C74.9599 33.9647 67.7913 32.9747 60.5368 33.5247C55.4471 33.9247 50.7158 35.1547 45.7839 36.0147C41.2709 36.7964 36.6629 37.2819 32.0203 37.4647C27.8195 37.6347 23.6474 37.6547 19.7477 38.9347C15.3175 40.3947 11.7046 43.3147 6.84431 43.6247C6.24199 43.7024 5.62144 43.6745 5.03839 43.5436C4.45533 43.4127 3.92803 43.1829 3.50378 42.8747C3.21287 42.52 3.03193 42.1267 2.97266 41.7202C2.91339 41.3137 2.97708 40.903 3.15966 40.5147C5.31022 33.4547 11.6186 31.5147 20.7226 29.9047C29.2102 28.3647 42.429 26.1847 50.3431 23.4347C55.3324 21.7047 56.6371 18.6447 59.9489 15.8547C63.777 12.6347 70.114 10.0047 75.2753 7.95473C94.7451 0.214727 121.154 -1.99527 137.785 10.1447C141.986 13.2247 144.796 17.4147 150.789 19.2247C157.843 21.3647 164.897 23.7147 172.395 24.9247C183.019 26.6647 194.001 28.1547 204.711 29.7547C209.028 30.325 213.247 31.2099 217.299 32.3947C222.614 33.9697 226.827 36.9405 229.026 40.6647C229.659 41.8292 229.952 43.0702 229.887 44.3147C229.793 45.5004 229.292 46.6529 228.424 47.6747V47.6747Z" fill="white"/>
</svg>
